<?xml version="1.0" encoding="UTF-8" standalone="no"?>
<svg
   id="Ebene_1"
   data-name="Ebene 1"
   viewBox="0 0 609.48792 222.50398"
   version="1.1"
   sodipodi:docname="brandit-logo.svg"
   width="609.48792"
   height="222.50398"
   inkscape:version="1.1.2 (0a00cf5339, 2022-02-04)"
   xmlns:inkscape="http://www.inkscape.org/namespaces/inkscape"
   xmlns:sodipodi="http://sodipodi.sourceforge.net/DTD/sodipodi-0.dtd"
   xmlns="http://www.w3.org/2000/svg"
   xmlns:svg="http://www.w3.org/2000/svg">
  <sodipodi:namedview
     id="namedview14"
     pagecolor="#ffffff"
     bordercolor="#666666"
     borderopacity="1.0"
     inkscape:pageshadow="2"
     inkscape:pageopacity="0.0"
     inkscape:pagecheckerboard="0"
     showgrid="false"
     fit-margin-top="0"
     fit-margin-left="0"
     fit-margin-right="0"
     fit-margin-bottom="0"
     inkscape:zoom="1.8035264"
     inkscape:cx="322.70112"
     inkscape:cy="115.88408"
     inkscape:window-width="2048"
     inkscape:window-height="1082"
     inkscape:window-x="0"
     inkscape:window-y="0"
     inkscape:window-maximized="1"
     inkscape:current-layer="Ebene_1" />
  <defs
     id="defs4">
    <style
       id="style2">
      .cls-1 {
        fill: #fff;
      }
    </style>
  </defs>
  <g
     id="Brandit"
     transform="translate(-41.842061,-29.636021)">
    <path
       class="cls-1"
       d="m 585.34,48.84 c -7.14,-0.54 -13.12,1.04 -17.92,4.8 -4.81,3.76 -7.19,8.15 -7.17,13.12 0.01,2.92 1.05,5.46 3.11,7.63 16.82,-5.5 24.22,-13.82 21.98,-25.56 z"
       id="path6" />
    <path
       class="cls-1"
       d="m 617.34,89.96 c -2.5,0.55 -4.3,0.85 -5.43,0.88 -1.82,0.04 -3.28,-0.32 -4.39,-1.12 9.7,-11.72 24.1,-29.3 43.81,-50.83 -1.85,-0.7 -3.8,-1.08 -5.89,-1.18 -1.16,-0.03 -3.37,0.08 -6.61,0.35 -3.26,0.29 -6.03,0.31 -8.35,0.07 -4.01,3.57 -11.49,11.67 -22.22,24.96 -10.72,13.31 -19.29,23.33 -25.88,29.59 -11.29,-0.82 -17.96,2.48 -19.98,9.91 1.35,0.96 3.44,1.08 6.25,0.37 2.82,-0.72 4.79,-0.58 5.92,0.38 -10.63,16.18 -21.97,28.44 -34.11,36.44 v 0 c -7.95,5.79 -14.76,8.98 -20.51,9.43 -2.88,0.24 -4.11,-0.55 -3.7,-2.35 9.12,-11.8 22.63,-29.96 41.05,-53.32 -3.38,-0.03 -7.22,0.29 -11.51,0.97 -4.96,0.73 -8.46,1.14 -10.49,1.24 -2.66,4.64 -5.87,9.26 -9.61,13.84 -5.51,7.14 -8.89,11.69 -10.2,13.54 -4.83,5.07 -8.44,8.7 -10.84,10.82 -4.15,4.2 -8.18,7.45 -12.11,9.72 0,0 0,0 0,0 -5.7,3.48 -10.48,6.57 -13.79,7.03 7.17,-19.99 19.05,-41.31 36.04,-63.24 15.26,-18.48 30.8,-36.49 46.65,-53.79 -1.86,0.16 -5.67,0.47 -11.44,0.97 -4.61,0.5 -8.77,0.6 -12.46,0.26 -7.73,7.86 -16.63,18.39 -26.59,31.81 -15.71,21.25 -23.63,32.79 -24.3,33.68 -0.68,-0.13 -2.62,-0.82 -5.82,-2.08 -2.28,-0.94 -4.56,-1.25 -6.8,-0.94 -11,2.12 -20.54,6.47 -28.56,13.05 -4.36,3.6 -10.37,10.03 -17.96,19.34 -7.6,9.32 -13.48,15.1 -20.21,21.02 -5.94,5.14 -10.91,8.97 -16.11,10.75 2.37,-8.52 7.54,-18.88 15.58,-30.97 8.84,-13.83 14.67,-23.72 17.29,-29.77 -3.66,-0.83 -7.05,-1.12 -10.21,-0.86 -7.87,0.61 -16.29,5.44 -25.18,14.53 -9.71,10.08 -16.14,15.68 -19.43,16.73 3.55,-10.32 5.29,-16.39 5.17,-18.22 -0.16,-2.21 -0.86,-4.36 -2.13,-6.47 -3.19,-0.44 -6.35,-0.51 -9.48,-0.22 -10.31,0.96 -16.95,4.12 -19.91,9.41 1.36,0.23 3.19,-0.08 5.49,-0.96 2.29,-0.88 3.66,-1.32 4.11,-1.36 1.12,-0.12 2.04,0.26 2.78,1.11 -1.78,6.48 -4.52,13.58 -8.17,21.35 -5.01,7.72 -13.11,15.27 -24.24,22.68 0,0 0,0 0,0 -3.56,2.56 -8.28,5.64 -14.15,9.18 5.22,-8.47 10.5,-16.88 15.83,-25.19 6.29,-10.07 11.2,-18.88 14.66,-26.45 -0.45,0.04 -3.12,0.41 -8.01,1.08 -3.56,0.55 -5.71,0.31 -6.46,-0.73 0.67,-2.65 0.34,-6.59 -0.99,-11.83 -14.35,1.31 -26.9,6.2 -37.56,14.56 -6.05,4.72 -13.86,13.22 -23.27,25.42 -8.62,11.18 -21.15,22.13 -21.81,22.57 -11.25,7.87 -22.39,11.72 -33.57,11.7 0.92,-6.55 8.2,-15.59 22.12,-27.41 13.12,-11.02 19.67,-21.01 19.39,-29.72 -2.16,-1.22 -5.24,-1.58 -9.23,-1.11 -2,0.23 -5.07,0.87 -9.22,1.9 -4.14,1.02 -6.87,1.62 -8.2,1.78 -2.44,0.29 -4.14,0.13 -5.11,-0.48 0.3,-3.09 2.02,-6.83 5.22,-11.19 3.19,-4.36 5.19,-7.88 6.02,-10.52 -3.9,-0.42 -7.3,-0.44 -10.2,-0.07 -8.25,1.06 -14.11,5.69 -17.56,13.8 -2.43,7.29 -4.73,14.44 -6.92,21.47 -4.71,10.25 -10.44,18.96 -17.19,26.14 1.22,-3.44 2.09,-6.99 2.81,-10.63 2.3,-11.57 -7.1,-23.25 -26.28,-28.28 14.13,3.71 28.6,-14.95 39.32,-29.33 C 203.21,80.78 207.94,66.95 206.39,54.01 204.62,39.2 176.77,16.84 124.12,38.9 97.96,49.86 81.48,62.39 65.99,78.28 49.33,95.1 38.15,120.64 42.97,125.91 c 9.64,10.58 37.75,-7.78 51.02,-21.11 7.98,-8.2 26.93,-37.62 26.22,-40.77 -0.72,-3.15 -6.38,-2.9 -12.61,9.23 -17.67,34.4 -47.91,47.17 -52.18,43.67 -4.29,-3.51 6.61,-28.2 26.48,-44.05 19.89,-15.86 40.97,-25.92 62.77,-29.1 4.04,-0.59 7.83,-0.93 11.39,-1.05 16.26,0.31 25.33,7.86 27.2,22.51 1.53,11.95 -2.12,23.98 -10.74,35.8 -9.09,12.5 -20.77,19.34 -35.16,20.78 -2.09,0.2 -4.33,0.31 -6.71,0.35 2.31,-4.11 35.27,-65.39 35.27,-65.39 l -21.18,6.03 -76.1,142.21 c 0,0 51.67,7.01 88.77,-17.61 2.88,-1.91 7.51,-5.77 7.54,-5.79 5.71,-4.61 8.77,-9.24 20.15,-22.84 7.58,-9.12 16.61,-15.76 27.03,-19.8 -5.95,7.67 -11.84,15.31 -17.68,22.85 -6.06,9.19 -8.35,18.79 -6.97,29 6.23,1.07 12.15,1.36 17.75,0.87 12.28,-1.08 24.45,-6.8 36.68,-17.3 0.74,-0.61 7.54,-6.49 12.31,-11.38 -1.42,3.27 -1.98,6.23 -1.69,8.95 0.38,3.44 3.56,7.42 9.52,11.96 4.26,-1.15 9.56,-4.1 15.91,-8.88 6.35,-4.76 10.3,-7.52 11.78,-8.22 -1.73,2.76 -2.43,5.78 -2.12,9.06 0.28,2.92 1.47,5.1 3.58,6.55 6.49,-1 12.66,-3.28 18.52,-6.82 4.56,-3.22 19.96,-15.11 28.06,-21.68 -2.32,4.32 -5.87,11.52 -10.56,21.6 11.21,-0.37 20.27,-4.13 27.28,-11.3 2.69,-2.67 7.5,-9.71 14.52,-21.1 5.45,-8.47 11.15,-13.8 17.06,-16 -3.42,6.21 -6.94,12.36 -10.55,18.43 -3.75,7.38 -5.59,14.67 -5.55,21.87 4.03,4.06 8.67,5.83 13.92,5.31 6.58,-0.64 14.65,-5.57 24.35,-14.75 2.31,-2.22 5.77,-5.85 10.41,-10.85 -1.4,3.07 -2.02,6.05 -1.87,8.97 0.27,5.3 3.22,8.88 8.82,10.73 7.05,-0.09 13.36,-2.14 18.94,-6.11 4.74,-3.16 9.49,-6.29 14.25,-9.42 0.17,4.33 0.37,7.12 0.64,8.36 0.98,2.62 2.9,3.81 5.76,3.56 5.06,-0.47 9.65,-1.86 13.79,-4.2 1.74,-0.86 6.27,-3.53 13.68,-8.78 v 0 c 2.4,-1.58 4.21,-2.79 8.86,-5.95 -1.29,1.72 -2.77,5.03 -4.42,9.97 -0.79,3.98 1.9,6.07 8.09,6.24 15.86,-1.02 27.59,-5.46 35.29,-13.7 v 0 c 1.76,-1.52 4.84,-4 9.27,-7.45 -3.09,4.89 -4.62,8.13 -4.6,9.69 0.02,2.59 1.69,5.13 5,7.61 4.41,1 8.6,1.33 12.57,0.99 9.03,-0.77 19.38,-6.03 31.24,-15.42 0.03,-2.25 0.06,-4.5 0.09,-6.75 -8.95,6.11 -16.16,9.48 -21.7,9.89 -1.98,0.15 -3.86,-0.03 -5.62,-0.59 4.23,-9.83 14.46,-24.73 31.12,-43.63 16,-1.61 25.44,-5.56 28.31,-11.89 -0.9,-0.14 -1.81,-0.2 -2.72,-0.19 -1.58,0.04 -3.62,0.33 -6.13,0.88 z m -464.08,64.98 c -1.05,30.37 -59.01,36.44 -59.01,36.44 0,0 25.05,-46.29 28.7,-52.59 20.22,-5.6 30.73,4.28 30.31,16.15 z m 128.58,8.83 c 2.91,-15.55 13.78,-32.74 33.09,-51.62 0.35,1.45 0.57,2.82 0.69,4.1 0.86,10.07 -3.63,20.63 -13.32,31.6 -7.88,8.76 -14.67,14.06 -20.46,15.93 z m 179.5,-25.7 c -6.24,6.29 -13.67,12.11 -22.31,17.42 -1.8,-10.96 -0.05,-20.99 5.39,-29.97 5.63,-9.73 14.02,-16.14 25.18,-19.22 2.35,2.92 3.58,6.07 3.69,9.48 0.22,6.65 -3.8,14.04 -11.96,22.28 z"
       id="path8" />
    <path
       class="cls-1"
       d="m 85.23,252.14 c 225.95,-50.13 336.65,-53.64 501.23,-62.18 3.75,-0.19 -2.49,-12.09 -6.88,-11.85 -85.46,4.67 -170.92,9.37 -256.24,16.25 -42.29,3.41 -84.43,8.94 -126.56,13.93 -40.96,4.85 -86.06,13.15 -126.72,19.75 -1.96,0.33 15.17,23.61 15.17,23.61"
       id="path10" />
  </g>
</svg>
