<svg xmlns="http://www.w3.org/2000/svg" xmlns:xlink="http://www.w3.org/1999/xlink" width="1080" zoomAndPan="magnify" viewBox="0 0 810 809.999993" height="1080" preserveAspectRatio="xMidYMid meet" version="1.2"><defs/><g id="8dc567ac2a"><rect x="0" width="810" y="0" height="809.999993" style="fill:#ffffff;fill-opacity:1;stroke:none;"/><rect x="0" width="810" y="0" height="809.999993" style="fill:#ff914d;fill-opacity:1;stroke:none;"/><g style="fill:#008444;fill-opacity:1;"><g transform="translate(84.356258, 560.90085)"><path style="stroke:none" d="M 109.398438 -268.15625 L 122.738281 -213.457031 L 83.160156 -65.816406 C 81.675781 -60.183594 80.9375 -55.589844 80.9375 -52.03125 C 80.9375 -44.027344 85.976562 -37.058594 96.054688 -31.128906 C 106.136719 -25.199219 111.175781 -19.566406 111.175781 -14.230469 C 111.175781 -4.742188 103.765625 0 88.941406 0 L 33.351562 0 C 19.121094 0 12.007812 -4.59375 12.007812 -13.785156 C 12.007812 -20.605469 14.527344 -24.605469 19.566406 -25.792969 C 31.425781 -29.054688 40.320312 -35.132812 46.25 -44.027344 C 50.101562 -49.660156 53.957031 -59.886719 57.8125 -74.710938 Z M 168.097656 -80.046875 L 101.835938 -80.046875 L 110.285156 -112.511719 L 160.539062 -112.511719 L 116.066406 -293.503906 L 124.074219 -320.1875 L 219.238281 -320.1875 L 285.945312 -49.808594 C 288.613281 -39.726562 293.949219 -32.316406 301.953125 -27.570312 C 309.070312 -23.421875 312.628906 -18.972656 312.628906 -14.230469 C 312.628906 -4.742188 304.328125 0 287.722656 0 L 182.773438 0 C 166.46875 0 158.316406 -5.039062 158.316406 -15.121094 C 158.316406 -20.457031 161.429688 -24.976562 167.652344 -28.683594 C 173.878906 -32.390625 176.992188 -36.761719 176.992188 -41.800781 C 176.992188 -46.84375 175.953125 -53.363281 173.878906 -61.371094 C 171.804688 -67.59375 169.878906 -73.820312 168.097656 -80.046875 Z M 168.097656 -80.046875 "/></g></g><g style="fill:#008444;fill-opacity:1;"><g transform="translate(409.879724, 560.90085)"><path style="stroke:none" d="M 143.195312 0 L 30.683594 0 C 18.53125 0 12.453125 -4.445312 12.453125 -13.339844 C 12.453125 -19.269531 16.453125 -24.308594 24.457031 -28.460938 C 32.464844 -32.613281 36.464844 -39.578125 36.464844 -49.363281 L 36.464844 -270.824219 C 36.464844 -280.90625 32.464844 -288.019531 24.457031 -292.171875 C 16.453125 -296.320312 12.453125 -301.363281 12.453125 -307.292969 C 12.453125 -315.890625 18.53125 -320.1875 30.683594 -320.1875 L 143.195312 -320.1875 Z M 156.980469 0 L 156.980469 -27.128906 C 169.136719 -27.128906 177.289062 -31.425781 181.441406 -40.023438 C 184.699219 -46.25 186.332031 -56.03125 186.332031 -69.375 L 186.332031 -250.8125 C 186.332031 -264.15625 184.699219 -273.9375 181.441406 -280.164062 C 177.289062 -288.761719 169.136719 -293.0625 156.980469 -293.0625 L 156.980469 -320.1875 C 202.042969 -320.1875 237.621094 -304.476562 263.710938 -273.050781 C 287.722656 -243.996094 299.730469 -206.34375 299.730469 -160.09375 C 299.730469 -113.84375 287.722656 -76.191406 263.710938 -47.140625 C 237.621094 -15.714844 202.042969 0 156.980469 0 Z M 156.980469 0 "/></g></g></g></svg>