<svg xmlns="http://www.w3.org/2000/svg" xmlns:xlink="http://www.w3.org/1999/xlink" width="1080" zoomAndPan="magnify" viewBox="0 0 810 809.999993" height="1080" preserveAspectRatio="xMidYMid meet" version="1.2"><defs/><g id="149eeafbc7"><rect x="0" width="810" y="0" height="809.999993" style="fill:#ffffff;fill-opacity:1;stroke:none;"/><rect x="0" width="810" y="0" height="809.999993" style="fill:#ff914d;fill-opacity:1;stroke:none;"/><g style="fill:#008444;fill-opacity:1;"><g transform="translate(81.011718, 368.499993)"><path style="stroke:none" d="M 23.367188 -57.28125 L 26.21875 -45.597656 L 17.765625 -14.058594 C 17.449219 -12.855469 17.289062 -11.875 17.289062 -11.113281 C 17.289062 -9.40625 18.367188 -7.917969 20.519531 -6.648438 C 22.671875 -5.382812 23.75 -4.179688 23.75 -3.039062 C 23.75 -1.011719 22.164062 0 19 0 L 7.125 0 C 4.085938 0 2.566406 -0.980469 2.566406 -2.945312 C 2.566406 -4.402344 3.101562 -5.257812 4.179688 -5.507812 C 6.714844 -6.207031 8.613281 -7.503906 9.878906 -9.40625 C 10.703125 -10.609375 11.527344 -12.792969 12.347656 -15.960938 Z M 35.90625 -17.097656 L 21.753906 -17.097656 L 23.558594 -24.035156 L 34.292969 -24.035156 L 24.792969 -62.695312 L 26.503906 -68.394531 L 46.832031 -68.394531 L 61.082031 -10.640625 C 61.652344 -8.484375 62.792969 -6.902344 64.5 -5.890625 C 66.023438 -5.003906 66.78125 -4.054688 66.78125 -3.039062 C 66.78125 -1.011719 65.007812 0 61.460938 0 L 39.042969 0 C 35.558594 0 33.816406 -1.078125 33.816406 -3.230469 C 33.816406 -4.371094 34.484375 -5.335938 35.8125 -6.128906 C 37.144531 -6.917969 37.808594 -7.851562 37.808594 -8.929688 C 37.808594 -10.007812 37.585938 -11.398438 37.144531 -13.109375 C 36.699219 -14.4375 36.289062 -15.769531 35.90625 -17.097656 Z M 35.90625 -17.097656 "/></g></g><g style="fill:#008444;fill-opacity:1;"><g transform="translate(150.546016, 368.499993)"><path style="stroke:none" d="M 33.535156 -30.683594 L 33.535156 -36.574219 C 35.875 -36.699219 37.492188 -37.617188 38.378906 -39.328125 C 39.011719 -40.53125 39.328125 -42.460938 39.328125 -45.121094 L 39.328125 -53.957031 C 39.328125 -59.53125 37.394531 -62.410156 33.535156 -62.601562 L 33.535156 -68.394531 L 37.144531 -68.394531 C 44.488281 -68.394531 50.09375 -67.320312 53.957031 -65.167969 C 58.960938 -62.445312 61.460938 -57.726562 61.460938 -51.011719 C 61.460938 -41.894531 56.269531 -36.351562 45.882812 -34.386719 L 45.882812 -34.199219 C 56.585938 -32.679688 61.9375 -28.308594 61.9375 -21.089844 C 61.9375 -21.59375 61.90625 -20.425781 61.839844 -17.574219 C 61.777344 -15.609375 61.777344 -14.058594 61.839844 -12.917969 C 62.03125 -11.335938 62.378906 -10.542969 62.886719 -10.542969 C 63.328125 -10.542969 63.851562 -11.003906 64.453125 -11.921875 C 65.054688 -12.839844 65.832031 -13.300781 66.78125 -13.300781 C 67.605469 -13.300781 68.316406 -12.984375 68.917969 -12.347656 C 69.519531 -11.714844 69.820312 -10.988281 69.820312 -10.164062 C 69.820312 -6.996094 68.046875 -4.339844 64.5 -2.183594 C 61.335938 -0.285156 58.105469 0.664062 54.8125 0.664062 C 47.65625 0.664062 43.191406 -1.867188 41.417969 -6.933594 C 41.226562 -7.503906 40.785156 -12.347656 40.089844 -21.46875 C 39.644531 -26.980469 37.460938 -30.050781 33.535156 -30.683594 Z M 30.589844 -68.394531 L 30.589844 -9.785156 C 30.589844 -8.136719 31.441406 -6.886719 33.152344 -6.03125 C 34.863281 -5.175781 35.71875 -4.117188 35.71875 -2.851562 C 35.71875 -0.949219 34.453125 0 31.917969 0 L 6.554688 0 C 3.957031 0 2.660156 -0.949219 2.660156 -2.851562 C 2.660156 -4.117188 3.515625 -5.175781 5.226562 -6.03125 C 6.933594 -6.886719 7.789062 -8.390625 7.789062 -10.542969 L 7.789062 -57.851562 C 7.789062 -59.941406 6.933594 -61.429688 5.226562 -62.316406 C 3.515625 -63.203125 2.660156 -64.3125 2.660156 -65.640625 C 2.660156 -67.476562 3.957031 -68.394531 6.554688 -68.394531 Z M 30.589844 -68.394531 "/></g></g><g style="fill:#008444;fill-opacity:1;"><g transform="translate(220.555279, 368.499993)"><path style="stroke:none" d="M 9.121094 -48.636719 L 9.308594 -48.636719 C 10.828125 -44.710938 12.570312 -39.390625 14.535156 -32.679688 C 14.789062 -30.96875 14.882812 -28.214844 14.820312 -24.414062 C 14.628906 -18.207031 14.535156 -15.359375 14.535156 -15.863281 C 14.535156 -12.761719 15.230469 -10.386719 16.625 -8.738281 C 17.195312 -7.980469 18.460938 -7.03125 20.425781 -5.890625 C 21.816406 -5.128906 22.515625 -4.210938 22.515625 -3.136719 C 22.515625 -1.046875 21.152344 0 18.429688 0 L 5.226562 0 C 2.5 0 1.140625 -1.046875 1.140625 -3.136719 C 1.140625 -4.210938 2.265625 -5.382812 4.511719 -6.648438 C 6.761719 -7.917969 8.105469 -9.5625 8.550781 -11.589844 C 8.929688 -13.300781 9.121094 -15.453125 9.121094 -18.050781 Z M 42.9375 -39.519531 C 42.9375 -39.519531 39.042969 -26.34375 31.253906 0 L 28.308594 0 L 9.40625 -56.617188 C 8.519531 -59.277344 7.347656 -61.144531 5.890625 -62.222656 C 5.507812 -62.476562 4.402344 -62.980469 2.566406 -63.742188 C 1.613281 -64.058594 1.140625 -64.785156 1.140625 -65.925781 C 1.140625 -67.574219 2.375 -68.394531 4.84375 -68.394531 L 28.785156 -68.394531 L 37.902344 -41.417969 L 42.746094 -58.230469 L 42.9375 -58.230469 Z M 45.976562 -68.394531 L 70.011719 -68.394531 C 72.609375 -68.394531 73.90625 -67.476562 73.90625 -65.640625 C 73.90625 -64.3125 73.050781 -63.21875 71.339844 -62.363281 C 69.632812 -61.507812 68.777344 -60.195312 68.777344 -58.421875 L 68.777344 -9.785156 C 68.777344 -8.011719 69.632812 -6.730469 71.339844 -5.9375 C 73.050781 -5.144531 73.90625 -4.117188 73.90625 -2.851562 C 73.90625 -0.949219 72.609375 0 70.011719 0 L 44.742188 0 C 42.082031 0 40.753906 -0.949219 40.753906 -2.851562 C 40.753906 -4.054688 41.625 -5.113281 43.363281 -6.03125 C 45.105469 -6.949219 45.976562 -8.453125 45.976562 -10.542969 Z M 45.976562 -68.394531 "/></g></g><g style="fill:#008444;fill-opacity:1;"><g transform="translate(297.213993, 368.499993)"><path style="stroke:none" d="M 46.167969 -35.71875 L 43.507812 -41.796875 C 44.710938 -44.332031 45.914062 -46.863281 47.117188 -49.398438 C 48.699219 -52.945312 49.492188 -55.605469 49.492188 -57.378906 C 49.492188 -59.085938 48.414062 -60.558594 46.261719 -61.792969 C 44.109375 -63.027344 43.03125 -64.214844 43.03125 -65.355469 C 43.03125 -67.382812 44.550781 -68.394531 47.59375 -68.394531 L 59.5625 -68.394531 C 62.601562 -68.394531 64.121094 -67.445312 64.121094 -65.546875 C 64.121094 -64.28125 63.171875 -63.203125 61.273438 -62.316406 C 58.867188 -61.175781 57.378906 -60.226562 56.808594 -59.46875 C 55.414062 -57.628906 53.386719 -53.515625 50.726562 -47.117188 C 49.207031 -43.316406 47.6875 -39.519531 46.167969 -35.71875 Z M 44.550781 -32.296875 L 44.550781 -9.40625 C 44.550781 -7.949219 45.566406 -6.839844 47.59375 -6.078125 C 49.617188 -5.320312 50.632812 -4.210938 50.632812 -2.753906 C 50.632812 -0.917969 49.082031 0 45.976562 0 L 20.042969 0 C 16.941406 0 15.390625 -0.917969 15.390625 -2.753906 C 15.390625 -4.339844 16.402344 -5.445312 18.429688 -6.078125 C 20.457031 -6.714844 21.46875 -8.074219 21.46875 -10.164062 L 21.46875 -27.738281 L 8.265625 -58.613281 C 7.820312 -59.625 6.714844 -60.859375 4.941406 -62.316406 C 3.417969 -63.582031 2.660156 -64.597656 2.660156 -65.355469 C 2.660156 -67.382812 4.433594 -68.394531 7.980469 -68.394531 L 30.398438 -68.394531 C 33.882812 -68.394531 35.625 -67.289062 35.625 -65.070312 C 35.625 -64.121094 35.117188 -63.3125 34.101562 -62.648438 C 33.089844 -61.984375 32.582031 -61.398438 32.582031 -60.890625 C 32.582031 -60.132812 32.804688 -59.246094 33.25 -58.230469 Z M 44.550781 -32.296875 "/></g></g><g style="fill:#008444;fill-opacity:1;"><g transform="translate(404.390599, 368.499993)"><path style="stroke:none" d="M 30.589844 0 L 6.554688 0 C 3.957031 0 2.660156 -0.949219 2.660156 -2.851562 C 2.660156 -4.117188 3.515625 -5.191406 5.226562 -6.078125 C 6.933594 -6.964844 7.789062 -8.453125 7.789062 -10.542969 L 7.789062 -57.851562 C 7.789062 -60.003906 6.933594 -61.523438 5.226562 -62.410156 C 3.515625 -63.296875 2.660156 -64.375 2.660156 -65.640625 C 2.660156 -67.476562 3.957031 -68.394531 6.554688 -68.394531 L 30.589844 -68.394531 Z M 33.535156 0 L 33.535156 -5.792969 C 36.128906 -5.792969 37.871094 -6.714844 38.757812 -8.550781 C 39.453125 -9.878906 39.804688 -11.96875 39.804688 -14.820312 L 39.804688 -53.578125 C 39.804688 -56.425781 39.453125 -58.515625 38.757812 -59.847656 C 37.871094 -61.683594 36.128906 -62.601562 33.535156 -62.601562 L 33.535156 -68.394531 C 43.160156 -68.394531 50.757812 -65.039062 56.332031 -58.328125 C 61.460938 -52.121094 64.027344 -44.078125 64.027344 -34.199219 C 64.027344 -24.320312 61.460938 -16.277344 56.332031 -10.070312 C 50.757812 -3.355469 43.160156 0 33.535156 0 Z M 33.535156 0 "/></g></g><g style="fill:#008444;fill-opacity:1;"><g transform="translate(471.835069, 368.499993)"><path style="stroke:none" d="M 33.816406 -62.125 L 33.816406 -68.394531 L 54.621094 -68.394531 L 54.621094 -50.15625 C 54.621094 -48.257812 53.703125 -47.308594 51.867188 -47.308594 C 50.664062 -47.308594 49.429688 -48.574219 48.164062 -51.105469 C 46.390625 -54.652344 44.902344 -57.058594 43.699219 -58.328125 C 41.226562 -60.859375 37.933594 -62.125 33.816406 -62.125 Z M 30.589844 0 L 6.554688 0 C 3.957031 0 2.660156 -0.949219 2.660156 -2.851562 C 2.660156 -4.117188 3.515625 -5.191406 5.226562 -6.078125 C 6.933594 -6.964844 7.789062 -8.453125 7.789062 -10.542969 L 7.789062 -57.851562 C 7.789062 -60.003906 6.933594 -61.523438 5.226562 -62.410156 C 3.515625 -63.296875 2.660156 -64.375 2.660156 -65.640625 C 2.660156 -67.476562 3.957031 -68.394531 6.554688 -68.394531 L 30.589844 -68.394531 Z M 55.285156 0 L 33.816406 0 L 33.816406 -6.269531 C 38.441406 -6.269531 41.957031 -7.632812 44.363281 -10.355469 C 45.628906 -11.683594 46.992188 -14.152344 48.449219 -17.765625 C 49.523438 -20.488281 50.695312 -21.847656 51.960938 -21.847656 C 54.179688 -21.847656 55.285156 -19.601562 55.285156 -15.105469 Z M 33.816406 -32.109375 L 33.816406 -38.378906 C 36.035156 -39.011719 37.648438 -40.246094 38.664062 -42.082031 C 39.234375 -43.601562 39.820312 -45.105469 40.421875 -46.59375 C 41.023438 -48.082031 41.957031 -48.828125 43.222656 -48.828125 C 44.996094 -48.828125 45.882812 -47.179688 45.882812 -43.886719 L 45.882812 -26.125 C 45.882812 -23.082031 44.996094 -21.5625 43.222656 -21.5625 C 42.210938 -21.5625 40.972656 -23.082031 39.519531 -26.125 C 37.933594 -29.417969 36.035156 -31.410156 33.816406 -32.109375 Z M 33.816406 -32.109375 "/></g></g><g style="fill:#008444;fill-opacity:1;"><g transform="translate(532.25012, 368.499993)"><path style="stroke:none" d="M 30.589844 -68.394531 L 30.589844 -10.542969 C 30.589844 -8.769531 31.617188 -7.28125 33.675781 -6.078125 C 35.734375 -4.875 36.761719 -3.769531 36.761719 -2.753906 C 36.761719 -0.917969 35.210938 0 32.109375 0 L 6.554688 0 C 3.957031 0 2.660156 -0.949219 2.660156 -2.851562 C 2.660156 -4.117188 3.515625 -5.191406 5.226562 -6.078125 C 6.933594 -6.964844 7.789062 -8.453125 7.789062 -10.542969 L 7.789062 -57.851562 C 7.789062 -60.003906 6.933594 -61.523438 5.226562 -62.410156 C 3.515625 -63.296875 2.660156 -64.375 2.660156 -65.640625 C 2.660156 -67.476562 3.957031 -68.394531 6.554688 -68.394531 Z M 33.535156 -26.21875 L 33.535156 -32.109375 C 37.585938 -32.109375 39.613281 -34.925781 39.613281 -40.5625 L 39.613281 -53.957031 C 39.613281 -59.71875 37.585938 -62.601562 33.535156 -62.601562 L 33.535156 -68.394531 L 35.527344 -68.394531 C 53.007812 -68.394531 61.746094 -61.367188 61.746094 -47.308594 C 61.746094 -39.265625 58.898438 -33.566406 53.195312 -30.207031 C 48.699219 -27.546875 42.144531 -26.21875 33.535156 -26.21875 Z M 33.535156 -26.21875 "/></g></g><g style="fill:#008444;fill-opacity:1;"><g transform="translate(597.319804, 368.499993)"><path style="stroke:none" d="M 32.488281 -4.558594 L 32.488281 1.234375 C 22.863281 0.476562 15.515625 -3.261719 10.449219 -9.972656 C 5.761719 -16.179688 3.417969 -24.253906 3.417969 -34.199219 C 3.417969 -44.140625 5.761719 -52.214844 10.449219 -58.421875 C 15.515625 -65.136719 22.863281 -68.871094 32.488281 -69.632812 L 32.488281 -63.835938 C 29.320312 -63.898438 27.738281 -60.890625 27.738281 -54.8125 L 27.738281 -13.585938 C 27.738281 -7.503906 29.320312 -4.496094 32.488281 -4.558594 Z M 35.339844 1.234375 L 35.339844 -4.558594 C 38.441406 -4.496094 39.992188 -7.503906 39.992188 -13.585938 L 39.992188 -54.8125 C 39.992188 -60.890625 38.441406 -63.898438 35.339844 -63.835938 L 35.339844 -69.632812 C 44.964844 -68.871094 52.3125 -65.136719 57.378906 -58.421875 C 62.0625 -52.214844 64.40625 -44.140625 64.40625 -34.199219 C 64.40625 -24.253906 62.0625 -16.179688 57.378906 -9.972656 C 52.3125 -3.261719 44.964844 0.476562 35.339844 1.234375 Z M 35.339844 1.234375 "/></g></g><g style="fill:#008444;fill-opacity:1;"><g transform="translate(665.144218, 368.499993)"><path style="stroke:none" d="M 3.417969 -49.492188 L 3.417969 -68.394531 L 17.097656 -68.394531 L 17.097656 -61.9375 C 14.882812 -60.988281 13.269531 -58.960938 12.253906 -55.855469 C 11.621094 -53.261719 10.957031 -50.695312 10.257812 -48.164062 C 9.5625 -45.628906 8.390625 -44.363281 6.746094 -44.363281 C 4.527344 -44.363281 3.417969 -46.074219 3.417969 -49.492188 Z M 46.640625 -68.394531 L 60.417969 -68.394531 L 60.417969 -47.972656 C 60.417969 -45.566406 59.277344 -44.363281 56.996094 -44.363281 C 55.351562 -44.363281 54.179688 -45.628906 53.480469 -48.164062 C 52.785156 -50.695312 52.121094 -53.261719 51.488281 -55.855469 C 50.472656 -58.960938 48.859375 -60.988281 46.640625 -61.9375 Z M 20.898438 -68.394531 L 43.792969 -68.394531 L 43.792969 -9.40625 C 43.792969 -8.011719 44.804688 -6.855469 46.832031 -5.9375 C 48.859375 -5.019531 49.871094 -3.957031 49.871094 -2.753906 C 49.871094 -0.917969 48.351562 0 45.3125 0 L 19.285156 0 C 16.308594 0 14.820312 -0.917969 14.820312 -2.753906 C 14.820312 -4.019531 15.832031 -5.113281 17.859375 -6.03125 C 19.886719 -6.949219 20.898438 -8.296875 20.898438 -10.070312 Z M 20.898438 -68.394531 "/></g></g><g style="fill:#008444;fill-opacity:1;"><g transform="translate(224.312848, 494.499986)"><path style="stroke:none" d="M 30.589844 0 L 6.554688 0 C 3.957031 0 2.660156 -0.949219 2.660156 -2.851562 C 2.660156 -4.117188 3.515625 -5.191406 5.226562 -6.078125 C 6.933594 -6.964844 7.789062 -8.453125 7.789062 -10.542969 L 7.789062 -57.851562 C 7.789062 -60.003906 6.933594 -61.523438 5.226562 -62.410156 C 3.515625 -63.296875 2.660156 -64.375 2.660156 -65.640625 C 2.660156 -67.476562 3.957031 -68.394531 6.554688 -68.394531 L 30.589844 -68.394531 Z M 37.144531 0 L 33.535156 0 L 33.535156 -5.792969 C 36.320312 -5.792969 38.25 -6.585938 39.328125 -8.167969 C 40.214844 -9.4375 40.65625 -11.527344 40.65625 -14.4375 L 40.65625 -24.414062 C 40.65625 -27.328125 40.214844 -29.417969 39.328125 -30.683594 C 38.25 -32.203125 36.320312 -32.964844 33.535156 -32.964844 L 33.535156 -38.757812 C 38.410156 -38.757812 40.847656 -41.894531 40.847656 -48.164062 C 40.847656 -48.796875 40.816406 -49.777344 40.753906 -51.105469 C 40.691406 -52.4375 40.65625 -53.386719 40.65625 -53.957031 C 40.65625 -56.871094 40.214844 -58.960938 39.328125 -60.226562 C 38.25 -61.808594 36.320312 -62.601562 33.535156 -62.601562 L 33.535156 -68.394531 L 37.617188 -68.394531 C 45.21875 -68.394531 50.917969 -67.445312 54.71875 -65.546875 C 60.101562 -62.886719 62.792969 -58.167969 62.792969 -51.390625 C 62.792969 -42.210938 57.1875 -37.015625 45.976562 -35.8125 L 45.976562 -35.527344 C 51.359375 -35.085938 55.605469 -33.46875 58.707031 -30.683594 C 62.0625 -27.707031 63.742188 -23.589844 63.742188 -18.335938 C 63.742188 -11.179688 60.921875 -6.144531 55.285156 -3.230469 C 51.105469 -1.078125 45.058594 0 37.144531 0 Z M 37.144531 0 "/></g></g><g style="fill:#008444;fill-opacity:1;"><g transform="translate(292.042299, 494.499986)"><path style="stroke:none" d="M 33.816406 -62.125 L 33.816406 -68.394531 L 54.621094 -68.394531 L 54.621094 -50.15625 C 54.621094 -48.257812 53.703125 -47.308594 51.867188 -47.308594 C 50.664062 -47.308594 49.429688 -48.574219 48.164062 -51.105469 C 46.390625 -54.652344 44.902344 -57.058594 43.699219 -58.328125 C 41.226562 -60.859375 37.933594 -62.125 33.816406 -62.125 Z M 30.589844 0 L 6.554688 0 C 3.957031 0 2.660156 -0.949219 2.660156 -2.851562 C 2.660156 -4.117188 3.515625 -5.191406 5.226562 -6.078125 C 6.933594 -6.964844 7.789062 -8.453125 7.789062 -10.542969 L 7.789062 -57.851562 C 7.789062 -60.003906 6.933594 -61.523438 5.226562 -62.410156 C 3.515625 -63.296875 2.660156 -64.375 2.660156 -65.640625 C 2.660156 -67.476562 3.957031 -68.394531 6.554688 -68.394531 L 30.589844 -68.394531 Z M 55.285156 0 L 33.816406 0 L 33.816406 -6.269531 C 38.441406 -6.269531 41.957031 -7.632812 44.363281 -10.355469 C 45.628906 -11.683594 46.992188 -14.152344 48.449219 -17.765625 C 49.523438 -20.488281 50.695312 -21.847656 51.960938 -21.847656 C 54.179688 -21.847656 55.285156 -19.601562 55.285156 -15.105469 Z M 33.816406 -32.109375 L 33.816406 -38.378906 C 36.035156 -39.011719 37.648438 -40.246094 38.664062 -42.082031 C 39.234375 -43.601562 39.820312 -45.105469 40.421875 -46.59375 C 41.023438 -48.082031 41.957031 -48.828125 43.222656 -48.828125 C 44.996094 -48.828125 45.882812 -47.179688 45.882812 -43.886719 L 45.882812 -26.125 C 45.882812 -23.082031 44.996094 -21.5625 43.222656 -21.5625 C 42.210938 -21.5625 40.972656 -23.082031 39.519531 -26.125 C 37.933594 -29.417969 36.035156 -31.410156 33.816406 -32.109375 Z M 33.816406 -32.109375 "/></g></g><g style="fill:#008444;fill-opacity:1;"><g transform="translate(352.457351, 494.499986)"><path style="stroke:none" d="M 33.535156 -30.683594 L 33.535156 -36.574219 C 35.875 -36.699219 37.492188 -37.617188 38.378906 -39.328125 C 39.011719 -40.53125 39.328125 -42.460938 39.328125 -45.121094 L 39.328125 -53.957031 C 39.328125 -59.53125 37.394531 -62.410156 33.535156 -62.601562 L 33.535156 -68.394531 L 37.144531 -68.394531 C 44.488281 -68.394531 50.09375 -67.320312 53.957031 -65.167969 C 58.960938 -62.445312 61.460938 -57.726562 61.460938 -51.011719 C 61.460938 -41.894531 56.269531 -36.351562 45.882812 -34.386719 L 45.882812 -34.199219 C 56.585938 -32.679688 61.9375 -28.308594 61.9375 -21.089844 C 61.9375 -21.59375 61.90625 -20.425781 61.839844 -17.574219 C 61.777344 -15.609375 61.777344 -14.058594 61.839844 -12.917969 C 62.03125 -11.335938 62.378906 -10.542969 62.886719 -10.542969 C 63.328125 -10.542969 63.851562 -11.003906 64.453125 -11.921875 C 65.054688 -12.839844 65.832031 -13.300781 66.78125 -13.300781 C 67.605469 -13.300781 68.316406 -12.984375 68.917969 -12.347656 C 69.519531 -11.714844 69.820312 -10.988281 69.820312 -10.164062 C 69.820312 -6.996094 68.046875 -4.339844 64.5 -2.183594 C 61.335938 -0.285156 58.105469 0.664062 54.8125 0.664062 C 47.65625 0.664062 43.191406 -1.867188 41.417969 -6.933594 C 41.226562 -7.503906 40.785156 -12.347656 40.089844 -21.46875 C 39.644531 -26.980469 37.460938 -30.050781 33.535156 -30.683594 Z M 30.589844 -68.394531 L 30.589844 -9.785156 C 30.589844 -8.136719 31.441406 -6.886719 33.152344 -6.03125 C 34.863281 -5.175781 35.71875 -4.117188 35.71875 -2.851562 C 35.71875 -0.949219 34.453125 0 31.917969 0 L 6.554688 0 C 3.957031 0 2.660156 -0.949219 2.660156 -2.851562 C 2.660156 -4.117188 3.515625 -5.175781 5.226562 -6.03125 C 6.933594 -6.886719 7.789062 -8.390625 7.789062 -10.542969 L 7.789062 -57.851562 C 7.789062 -59.941406 6.933594 -61.429688 5.226562 -62.316406 C 3.515625 -63.203125 2.660156 -64.3125 2.660156 -65.640625 C 2.660156 -67.476562 3.957031 -68.394531 6.554688 -68.394531 Z M 30.589844 -68.394531 "/></g></g><g style="fill:#008444;fill-opacity:1;"><g transform="translate(422.466602, 494.499986)"><path style="stroke:none" d="M 30.589844 0 L 6.554688 0 C 3.957031 0 2.660156 -0.949219 2.660156 -2.851562 C 2.660156 -4.117188 3.515625 -5.191406 5.226562 -6.078125 C 6.933594 -6.964844 7.789062 -8.453125 7.789062 -10.542969 L 7.789062 -57.851562 C 7.789062 -59.941406 6.933594 -61.429688 5.226562 -62.316406 C 3.515625 -63.203125 2.660156 -64.3125 2.660156 -65.640625 C 2.660156 -67.476562 3.957031 -68.394531 6.554688 -68.394531 L 31.917969 -68.394531 C 34.453125 -68.394531 35.71875 -67.476562 35.71875 -65.640625 C 35.71875 -64.375 34.863281 -63.296875 33.152344 -62.410156 C 31.441406 -61.523438 30.589844 -60.003906 30.589844 -57.851562 Z M 53.765625 0 L 33.535156 0 L 33.535156 -6.269531 C 38.03125 -6.460938 41.417969 -8.105469 43.699219 -11.210938 C 44.773438 -12.664062 45.976562 -15.421875 47.308594 -19.472656 C 48.257812 -22.449219 49.398438 -23.9375 50.726562 -23.9375 C 52.183594 -23.9375 53.132812 -23.019531 53.578125 -21.183594 C 53.703125 -20.425781 53.765625 -18.871094 53.765625 -16.527344 Z M 53.765625 0 "/></g></g><g style="fill:#008444;fill-opacity:1;"><g transform="translate(481.931748, 494.499986)"><path style="stroke:none" d="M 31.917969 -68.394531 C 34.515625 -68.394531 35.8125 -67.476562 35.8125 -65.640625 C 35.8125 -64.3125 34.941406 -63.203125 33.199219 -62.316406 C 31.460938 -61.429688 30.589844 -59.941406 30.589844 -57.851562 L 30.589844 -10.355469 C 30.589844 -8.390625 31.460938 -6.964844 33.199219 -6.078125 C 34.941406 -5.191406 35.8125 -4.117188 35.8125 -2.851562 C 35.8125 -0.949219 34.515625 0 31.917969 0 L 6.554688 0 C 3.957031 0 2.660156 -0.949219 2.660156 -2.851562 C 2.660156 -4.117188 3.515625 -5.191406 5.226562 -6.078125 C 6.933594 -6.964844 7.789062 -8.453125 7.789062 -10.542969 L 7.789062 -57.851562 C 7.789062 -60.003906 6.933594 -61.523438 5.226562 -62.410156 C 3.515625 -63.296875 2.660156 -64.375 2.660156 -65.640625 C 2.660156 -67.476562 3.957031 -68.394531 6.554688 -68.394531 Z M 31.917969 -68.394531 "/></g></g><g style="fill:#008444;fill-opacity:1;"><g transform="translate(520.403578, 494.499986)"><path style="stroke:none" d="M 8.738281 -53.195312 L 14.152344 -43.699219 L 14.152344 -15.863281 C 14.152344 -12.761719 14.851562 -10.386719 16.246094 -8.738281 C 16.8125 -7.980469 18.082031 -7.03125 20.042969 -5.890625 C 21.4375 -5.128906 22.132812 -4.210938 22.132812 -3.136719 C 22.132812 -1.046875 20.773438 0 18.050781 0 L 4.84375 0 C 2.121094 0 0.761719 -1.046875 0.761719 -3.136719 C 0.761719 -4.085938 1.964844 -5.320312 4.371094 -6.839844 C 6.777344 -8.359375 8.136719 -10.226562 8.453125 -12.445312 C 8.644531 -13.902344 8.738281 -15.769531 8.738281 -18.050781 Z M 56.617188 -28.308594 L 51.105469 -37.808594 C 51.105469 -38.820312 51.140625 -40.816406 51.203125 -43.792969 C 51.265625 -46.390625 51.296875 -48.449219 51.296875 -49.96875 C 51.234375 -52.246094 51.074219 -54.273438 50.824219 -56.046875 C 50.503906 -58.390625 49.160156 -60.242188 46.785156 -61.605469 C 44.410156 -62.964844 43.222656 -64.183594 43.222656 -65.261719 C 43.222656 -67.351562 44.519531 -68.394531 47.117188 -68.394531 L 60.511719 -68.394531 C 63.171875 -68.394531 64.5 -67.351562 64.5 -65.261719 C 64.5 -64.183594 63.3125 -62.964844 60.9375 -61.605469 C 58.5625 -60.242188 57.21875 -58.390625 56.902344 -56.046875 C 56.585938 -53.324219 56.394531 -50.253906 56.332031 -46.832031 C 56.269531 -44.550781 56.300781 -41.449219 56.425781 -37.523438 C 56.554688 -33.089844 56.617188 -30.019531 56.617188 -28.308594 Z M 56.617188 -22.894531 L 56.617188 0 L 42.460938 0 L 7.882812 -59.75 C 7.1875 -61.019531 5.699219 -62.09375 3.417969 -62.980469 C 1.582031 -63.742188 0.664062 -64.691406 0.664062 -65.832031 C 0.664062 -67.542969 1.867188 -68.394531 4.273438 -68.394531 L 30.304688 -68.394531 Z M 56.617188 -22.894531 "/></g></g><g style="fill:#000000;fill-opacity:1;"><g transform="translate(82.535156, 598.74491)"><path style="stroke:none" d="M 15.65625 0.421875 C 12.914062 0.421875 10.546875 -0.191406 8.546875 -1.421875 C 6.546875 -2.660156 5.003906 -4.453125 3.921875 -6.796875 C 2.835938 -9.140625 2.296875 -11.976562 2.296875 -15.3125 C 2.296875 -18.675781 2.84375 -21.535156 3.9375 -23.890625 C 5.03125 -26.253906 6.578125 -28.0625 8.578125 -29.3125 C 10.585938 -30.5625 12.945312 -31.1875 15.65625 -31.1875 C 18.375 -31.1875 20.726562 -30.566406 22.71875 -29.328125 C 24.707031 -28.085938 26.238281 -26.285156 27.3125 -23.921875 C 28.394531 -21.554688 28.9375 -18.6875 28.9375 -15.3125 C 28.9375 -11.976562 28.398438 -9.140625 27.328125 -6.796875 C 26.253906 -4.453125 24.722656 -2.660156 22.734375 -1.421875 C 20.753906 -0.191406 18.394531 0.421875 15.65625 0.421875 Z M 15.65625 -3 C 17.5625 -3 19.175781 -3.429688 20.5 -4.296875 C 21.832031 -5.160156 22.847656 -6.5 23.546875 -8.3125 C 24.253906 -10.132812 24.609375 -12.457031 24.609375 -15.28125 C 24.609375 -18.144531 24.253906 -20.5 23.546875 -22.34375 C 22.835938 -24.1875 21.816406 -25.550781 20.484375 -26.4375 C 19.148438 -27.320312 17.539062 -27.765625 15.65625 -27.765625 C 13.78125 -27.765625 12.171875 -27.316406 10.828125 -26.421875 C 9.484375 -25.523438 8.445312 -24.15625 7.71875 -22.3125 C 7 -20.46875 6.640625 -18.125 6.640625 -15.28125 C 6.640625 -12.457031 7 -10.132812 7.71875 -8.3125 C 8.445312 -6.5 9.484375 -5.160156 10.828125 -4.296875 C 12.171875 -3.429688 13.78125 -3 15.65625 -3 Z M 15.65625 -3 "/></g></g><g style="fill:#000000;fill-opacity:1;"><g transform="translate(113.461038, 598.74491)"><path style="stroke:none" d="M 3.25 0 L 3.25 -22 L 7 -22 L 7 -17.765625 C 7.363281 -18.816406 7.878906 -19.6875 8.546875 -20.375 C 9.210938 -21.0625 9.972656 -21.570312 10.828125 -21.90625 C 11.691406 -22.25 12.585938 -22.421875 13.515625 -22.421875 C 13.835938 -22.421875 14.15625 -22.398438 14.46875 -22.359375 C 14.78125 -22.316406 15.019531 -22.242188 15.1875 -22.140625 L 15.1875 -18.34375 C 14.976562 -18.4375 14.707031 -18.5 14.375 -18.53125 C 14.039062 -18.570312 13.757812 -18.59375 13.53125 -18.59375 C 12.644531 -18.644531 11.816406 -18.585938 11.046875 -18.421875 C 10.285156 -18.265625 9.613281 -17.988281 9.03125 -17.59375 C 8.457031 -17.195312 8.003906 -16.675781 7.671875 -16.03125 C 7.335938 -15.382812 7.171875 -14.597656 7.171875 -13.671875 L 7.171875 0 Z M 3.25 0 "/></g></g><g style="fill:#000000;fill-opacity:1;"><g transform="translate(129.944947, 598.74491)"><path style="stroke:none" d="M 7.515625 -22 L 7.515625 0 L 3.703125 0 L 3.703125 -22 Z M 7.59375 -30.734375 L 7.59375 -26.65625 L 3.578125 -26.65625 L 3.578125 -30.734375 Z M 7.59375 -30.734375 "/></g></g><g style="fill:#000000;fill-opacity:1;"><g transform="translate(141.047638, 598.74491)"><path style="stroke:none" d="M 12.53125 7.28125 C 9.070312 7.28125 6.378906 6.78125 4.453125 5.78125 C 2.535156 4.78125 1.578125 3.347656 1.578125 1.484375 C 1.578125 0.691406 1.757812 0.0195312 2.125 -0.53125 C 2.5 -1.09375 2.941406 -1.554688 3.453125 -1.921875 C 3.960938 -2.296875 4.4375 -2.59375 4.875 -2.8125 C 5.3125 -3.039062 5.59375 -3.203125 5.71875 -3.296875 C 5.476562 -3.441406 5.175781 -3.617188 4.8125 -3.828125 C 4.457031 -4.035156 4.144531 -4.316406 3.875 -4.671875 C 3.601562 -5.035156 3.46875 -5.5 3.46875 -6.0625 C 3.46875 -6.757812 3.789062 -7.394531 4.4375 -7.96875 C 5.09375 -8.550781 6.0625 -8.988281 7.34375 -9.28125 C 6.050781 -9.925781 5.039062 -10.785156 4.3125 -11.859375 C 3.59375 -12.941406 3.234375 -14.113281 3.234375 -15.375 C 3.234375 -16.800781 3.617188 -18.035156 4.390625 -19.078125 C 5.160156 -20.128906 6.257812 -20.9375 7.6875 -21.5 C 9.125 -22.0625 10.832031 -22.34375 12.8125 -22.34375 C 14.238281 -22.34375 15.441406 -22.175781 16.421875 -21.84375 C 17.398438 -21.507812 18.304688 -21.035156 19.140625 -20.421875 C 19.367188 -20.523438 19.726562 -20.675781 20.21875 -20.875 C 20.707031 -21.082031 21.25 -21.304688 21.84375 -21.546875 C 22.4375 -21.785156 22.992188 -22.015625 23.515625 -22.234375 C 24.035156 -22.460938 24.453125 -22.628906 24.765625 -22.734375 L 24.734375 -19.109375 L 20.890625 -18.375 C 21.097656 -17.925781 21.269531 -17.429688 21.40625 -16.890625 C 21.539062 -16.347656 21.609375 -15.84375 21.609375 -15.375 C 21.609375 -14.082031 21.269531 -12.910156 20.59375 -11.859375 C 19.925781 -10.816406 18.910156 -9.984375 17.546875 -9.359375 C 16.191406 -8.734375 14.488281 -8.421875 12.4375 -8.421875 C 12.269531 -8.421875 12.054688 -8.425781 11.796875 -8.4375 C 11.535156 -8.445312 11.3125 -8.457031 11.125 -8.46875 C 9.625 -8.425781 8.585938 -8.257812 8.015625 -7.96875 C 7.453125 -7.675781 7.171875 -7.351562 7.171875 -7 C 7.171875 -6.582031 7.488281 -6.296875 8.125 -6.140625 C 8.757812 -5.984375 9.84375 -5.851562 11.375 -5.75 C 11.925781 -5.71875 12.609375 -5.679688 13.421875 -5.640625 C 14.242188 -5.597656 15.148438 -5.539062 16.140625 -5.46875 C 18.453125 -5.320312 20.234375 -4.734375 21.484375 -3.703125 C 22.734375 -2.671875 23.359375 -1.273438 23.359375 0.484375 C 23.359375 2.484375 22.460938 4.113281 20.671875 5.375 C 18.890625 6.644531 16.175781 7.28125 12.53125 7.28125 Z M 13.234375 4.75 C 15.265625 4.75 16.816406 4.441406 17.890625 3.828125 C 18.960938 3.222656 19.5 2.300781 19.5 1.0625 C 19.5 0.1875 19.171875 -0.53125 18.515625 -1.09375 C 17.859375 -1.65625 16.859375 -1.976562 15.515625 -2.0625 L 9.34375 -2.46875 C 8.789062 -2.5 8.210938 -2.359375 7.609375 -2.046875 C 7.015625 -1.742188 6.507812 -1.320312 6.09375 -0.78125 C 5.675781 -0.25 5.46875 0.359375 5.46875 1.046875 C 5.46875 2.203125 6.101562 3.109375 7.375 3.765625 C 8.644531 4.421875 10.597656 4.75 13.234375 4.75 Z M 12.546875 -10.953125 C 14.140625 -10.953125 15.421875 -11.320312 16.390625 -12.0625 C 17.359375 -12.800781 17.84375 -13.894531 17.84375 -15.34375 C 17.84375 -16.832031 17.359375 -17.960938 16.390625 -18.734375 C 15.421875 -19.515625 14.140625 -19.90625 12.546875 -19.90625 C 10.941406 -19.90625 9.644531 -19.507812 8.65625 -18.71875 C 7.675781 -17.9375 7.1875 -16.8125 7.1875 -15.34375 C 7.1875 -13.945312 7.65625 -12.863281 8.59375 -12.09375 C 9.53125 -11.332031 10.847656 -10.953125 12.546875 -10.953125 Z M 12.546875 -10.953125 "/></g></g><g style="fill:#000000;fill-opacity:1;"><g transform="translate(167.464434, 598.74491)"><path style="stroke:none" d="M 7.515625 -22 L 7.515625 0 L 3.703125 0 L 3.703125 -22 Z M 7.59375 -30.734375 L 7.59375 -26.65625 L 3.578125 -26.65625 L 3.578125 -30.734375 Z M 7.59375 -30.734375 "/></g></g><g style="fill:#000000;fill-opacity:1;"><g transform="translate(178.907507, 598.74491)"><path style="stroke:none" d="M 3.25 0 L 3.25 -22 L 7.0625 -22 L 7.0625 -18.8125 C 7.414062 -19.414062 7.90625 -19.988281 8.53125 -20.53125 C 9.164062 -21.070312 9.929688 -21.503906 10.828125 -21.828125 C 11.734375 -22.148438 12.773438 -22.3125 13.953125 -22.3125 C 15.347656 -22.3125 16.628906 -22.035156 17.796875 -21.484375 C 18.960938 -20.929688 19.894531 -20.066406 20.59375 -18.890625 C 21.300781 -17.722656 21.65625 -16.21875 21.65625 -14.375 L 21.65625 0 L 17.71875 0 L 17.71875 -14 C 17.71875 -15.71875 17.265625 -16.988281 16.359375 -17.8125 C 15.460938 -18.644531 14.300781 -19.0625 12.875 -19.0625 C 11.875 -19.0625 10.941406 -18.898438 10.078125 -18.578125 C 9.210938 -18.265625 8.507812 -17.785156 7.96875 -17.140625 C 7.4375 -16.492188 7.171875 -15.679688 7.171875 -14.703125 L 7.171875 0 Z M 3.25 0 "/></g></g><g style="fill:#000000;fill-opacity:1;"><g transform="translate(203.388753, 598.74491)"><path style="stroke:none" d="M 9.34375 0.421875 C 7.925781 0.421875 6.671875 0.171875 5.578125 -0.328125 C 4.484375 -0.828125 3.625 -1.550781 3 -2.5 C 2.382812 -3.457031 2.078125 -4.609375 2.078125 -5.953125 C 2.078125 -8.390625 2.925781 -10.203125 4.625 -11.390625 C 6.332031 -12.585938 9.066406 -13.226562 12.828125 -13.3125 L 16.765625 -13.421875 L 16.765625 -15.140625 C 16.765625 -16.492188 16.359375 -17.5625 15.546875 -18.34375 C 14.742188 -19.132812 13.488281 -19.53125 11.78125 -19.53125 C 10.519531 -19.507812 9.410156 -19.207031 8.453125 -18.625 C 7.492188 -18.050781 6.875 -17.101562 6.59375 -15.78125 L 3.125 -15.78125 C 3.207031 -17.21875 3.609375 -18.425781 4.328125 -19.40625 C 5.054688 -20.394531 6.066406 -21.144531 7.359375 -21.65625 C 8.660156 -22.164062 10.203125 -22.421875 11.984375 -22.421875 C 13.890625 -22.421875 15.476562 -22.148438 16.75 -21.609375 C 18.019531 -21.078125 18.96875 -20.285156 19.59375 -19.234375 C 20.226562 -18.179688 20.546875 -16.890625 20.546875 -15.359375 L 20.546875 0 L 17.1875 0 L 16.90625 -4.125 C 16.0625 -2.40625 14.984375 -1.21875 13.671875 -0.5625 C 12.359375 0.09375 10.914062 0.421875 9.34375 0.421875 Z M 10.53125 -2.40625 C 11.269531 -2.40625 12.003906 -2.539062 12.734375 -2.8125 C 13.460938 -3.082031 14.128906 -3.445312 14.734375 -3.90625 C 15.347656 -4.363281 15.832031 -4.878906 16.1875 -5.453125 C 16.550781 -6.023438 16.742188 -6.617188 16.765625 -7.234375 L 16.765625 -11 L 13.484375 -10.9375 C 11.816406 -10.90625 10.414062 -10.734375 9.28125 -10.421875 C 8.15625 -10.109375 7.3125 -9.617188 6.75 -8.953125 C 6.1875 -8.285156 5.90625 -7.414062 5.90625 -6.34375 C 5.90625 -5.101562 6.332031 -4.132812 7.1875 -3.4375 C 8.050781 -2.75 9.164062 -2.40625 10.53125 -2.40625 Z M 10.53125 -2.40625 "/></g></g><g style="fill:#000000;fill-opacity:1;"><g transform="translate(227.402084, 598.74491)"><path style="stroke:none" d="M 8.8125 0.28125 C 7.613281 0.28125 6.648438 0.117188 5.921875 -0.203125 C 5.191406 -0.535156 4.628906 -0.976562 4.234375 -1.53125 C 3.847656 -2.082031 3.585938 -2.71875 3.453125 -3.4375 C 3.316406 -4.15625 3.25 -4.894531 3.25 -5.65625 L 3.25 -31.609375 L 7.125 -31.609375 L 7.125 -6.046875 C 7.125 -4.929688 7.335938 -4.097656 7.765625 -3.546875 C 8.203125 -2.992188 8.8125 -2.691406 9.59375 -2.640625 L 10.78125 -2.609375 L 10.78125 -0.0625 C 10.457031 0.03125 10.117188 0.109375 9.765625 0.171875 C 9.410156 0.242188 9.09375 0.28125 8.8125 0.28125 Z M 8.8125 0.28125 "/></g></g><g style="fill:#000000;fill-opacity:1;"><g transform="translate(240.057475, 598.74491)"><path style="stroke:none" d=""/></g></g><g style="fill:#000000;fill-opacity:1;"><g transform="translate(249.862738, 598.74491)"><path style="stroke:none" d="M 4.0625 0 L 4.0625 -30.765625 L 13.953125 -30.765625 C 17.703125 -30.765625 20.535156 -30.078125 22.453125 -28.703125 C 24.378906 -27.328125 25.34375 -25.335938 25.34375 -22.734375 C 25.34375 -21.109375 24.921875 -19.710938 24.078125 -18.546875 C 23.234375 -17.390625 21.753906 -16.429688 19.640625 -15.671875 C 20.835938 -15.421875 21.851562 -15.050781 22.6875 -14.5625 C 23.519531 -14.082031 24.1875 -13.519531 24.6875 -12.875 C 25.1875 -12.226562 25.546875 -11.515625 25.765625 -10.734375 C 25.992188 -9.960938 26.109375 -9.144531 26.109375 -8.28125 C 26.109375 -5.5 25.117188 -3.421875 23.140625 -2.046875 C 21.160156 -0.679688 18.207031 0 14.28125 0 Z M 8 -3.28125 L 14.234375 -3.28125 C 16.796875 -3.28125 18.75 -3.703125 20.09375 -4.546875 C 21.4375 -5.390625 22.109375 -6.691406 22.109375 -8.453125 C 22.109375 -9.734375 21.773438 -10.773438 21.109375 -11.578125 C 20.453125 -12.378906 19.5625 -12.960938 18.4375 -13.328125 C 17.320312 -13.703125 16.078125 -13.890625 14.703125 -13.890625 L 8 -13.890625 Z M 8 -17.234375 L 14.703125 -17.234375 C 15.503906 -17.234375 16.300781 -17.3125 17.09375 -17.46875 C 17.894531 -17.625 18.628906 -17.890625 19.296875 -18.265625 C 19.960938 -18.648438 20.5 -19.164062 20.90625 -19.8125 C 21.320312 -20.457031 21.53125 -21.269531 21.53125 -22.25 C 21.53125 -24.039062 20.84375 -25.363281 19.46875 -26.21875 C 18.101562 -27.070312 16.328125 -27.5 14.140625 -27.5 L 8 -27.5 Z M 8 -17.234375 "/></g></g><g style="fill:#000000;fill-opacity:1;"><g transform="translate(278.385213, 598.74491)"><path style="stroke:none" d="M 11.34375 0.421875 C 10.1875 0.410156 9.101562 0.25 8.09375 -0.0625 C 7.082031 -0.382812 6.1875 -0.859375 5.40625 -1.484375 C 4.625 -2.109375 4.007812 -2.882812 3.5625 -3.8125 C 3.113281 -4.75 2.890625 -5.832031 2.890625 -7.0625 L 2.890625 -22 L 6.828125 -22 L 6.828125 -7.46875 C 6.828125 -6.03125 7.269531 -4.863281 8.15625 -3.96875 C 9.039062 -3.082031 10.378906 -2.640625 12.171875 -2.640625 C 13.785156 -2.640625 15.082031 -3.0625 16.0625 -3.90625 C 17.050781 -4.75 17.546875 -6.007812 17.546875 -7.6875 L 17.546875 -22 L 21.46875 -22 L 21.46875 0 L 18.34375 0 L 17.9375 -4.21875 C 17.664062 -3.101562 17.207031 -2.207031 16.5625 -1.53125 C 15.914062 -0.851562 15.140625 -0.351562 14.234375 -0.03125 C 13.335938 0.289062 12.375 0.441406 11.34375 0.421875 Z M 11.34375 0.421875 "/></g></g><g style="fill:#000000;fill-opacity:1;"><g transform="translate(303.015415, 598.74491)"><path style="stroke:none" d="M 3.25 0 L 3.25 -22 L 7.0625 -22 L 7.0625 -18.8125 C 7.414062 -19.414062 7.90625 -19.988281 8.53125 -20.53125 C 9.164062 -21.070312 9.929688 -21.503906 10.828125 -21.828125 C 11.734375 -22.148438 12.773438 -22.3125 13.953125 -22.3125 C 15.347656 -22.3125 16.628906 -22.035156 17.796875 -21.484375 C 18.960938 -20.929688 19.894531 -20.066406 20.59375 -18.890625 C 21.300781 -17.722656 21.65625 -16.21875 21.65625 -14.375 L 21.65625 0 L 17.71875 0 L 17.71875 -14 C 17.71875 -15.71875 17.265625 -16.988281 16.359375 -17.8125 C 15.460938 -18.644531 14.300781 -19.0625 12.875 -19.0625 C 11.875 -19.0625 10.941406 -18.898438 10.078125 -18.578125 C 9.210938 -18.265625 8.507812 -17.785156 7.96875 -17.140625 C 7.4375 -16.492188 7.171875 -15.679688 7.171875 -14.703125 L 7.171875 0 Z M 3.25 0 "/></g></g><g style="fill:#000000;fill-opacity:1;"><g transform="translate(327.560473, 598.74491)"><path style="stroke:none" d="M 11.1875 0.421875 C 8.332031 0.421875 6.066406 -0.554688 4.390625 -2.515625 C 2.722656 -4.472656 1.890625 -7.328125 1.890625 -11.078125 C 1.890625 -13.367188 2.226562 -15.363281 2.90625 -17.0625 C 3.582031 -18.757812 4.582031 -20.078125 5.90625 -21.015625 C 7.238281 -21.953125 8.898438 -22.421875 10.890625 -22.421875 C 11.941406 -22.421875 12.875 -22.285156 13.6875 -22.015625 C 14.5 -21.742188 15.203125 -21.398438 15.796875 -20.984375 C 16.398438 -20.578125 16.890625 -20.15625 17.265625 -19.71875 C 17.640625 -19.28125 17.921875 -18.878906 18.109375 -18.515625 L 18.109375 -31.609375 L 22.0625 -31.609375 L 22.0625 0 L 19.0625 0 L 18.640625 -4.515625 C 18.492188 -4.085938 18.265625 -3.59375 17.953125 -3.03125 C 17.640625 -2.46875 17.195312 -1.921875 16.625 -1.390625 C 16.0625 -0.859375 15.335938 -0.421875 14.453125 -0.078125 C 13.566406 0.253906 12.476562 0.421875 11.1875 0.421875 Z M 11.890625 -2.59375 C 14.117188 -2.59375 15.710938 -3.269531 16.671875 -4.625 C 17.628906 -5.976562 18.109375 -8.195312 18.109375 -11.28125 C 18.085938 -12.988281 17.867188 -14.445312 17.453125 -15.65625 C 17.035156 -16.863281 16.382812 -17.78125 15.5 -18.40625 C 14.613281 -19.039062 13.441406 -19.359375 11.984375 -19.359375 C 10.160156 -19.359375 8.679688 -18.710938 7.546875 -17.421875 C 6.410156 -16.128906 5.84375 -14.082031 5.84375 -11.28125 C 5.84375 -8.519531 6.359375 -6.378906 7.390625 -4.859375 C 8.421875 -3.347656 9.921875 -2.59375 11.890625 -2.59375 Z M 11.890625 -2.59375 "/></g></g><g style="fill:#000000;fill-opacity:1;"><g transform="translate(352.871255, 598.74491)"><path style="stroke:none" d="M 6.0625 -10.078125 C 6.0625 -8.691406 6.289062 -7.429688 6.75 -6.296875 C 7.21875 -5.171875 7.921875 -4.273438 8.859375 -3.609375 C 9.804688 -2.941406 10.988281 -2.609375 12.40625 -2.609375 C 13.8125 -2.609375 15.019531 -2.9375 16.03125 -3.59375 C 17.039062 -4.25 17.6875 -5.191406 17.96875 -6.421875 L 21.703125 -6.421875 C 21.429688 -4.929688 20.832031 -3.675781 19.90625 -2.65625 C 18.988281 -1.632812 17.875 -0.863281 16.5625 -0.34375 C 15.257812 0.164062 13.898438 0.421875 12.484375 0.421875 C 10.429688 0.421875 8.625 -0.0195312 7.0625 -0.90625 C 5.5 -1.800781 4.273438 -3.085938 3.390625 -4.765625 C 2.515625 -6.441406 2.078125 -8.445312 2.078125 -10.78125 C 2.078125 -13.09375 2.472656 -15.117188 3.265625 -16.859375 C 4.066406 -18.609375 5.222656 -19.972656 6.734375 -20.953125 C 8.242188 -21.929688 10.0625 -22.421875 12.1875 -22.421875 C 14.257812 -22.421875 16.007812 -21.972656 17.4375 -21.078125 C 18.875 -20.179688 19.960938 -18.921875 20.703125 -17.296875 C 21.453125 -15.679688 21.828125 -13.757812 21.828125 -11.53125 L 21.828125 -10.078125 Z M 6.078125 -12.75 L 18.046875 -12.75 C 18.046875 -14.007812 17.832031 -15.144531 17.40625 -16.15625 C 16.976562 -17.164062 16.328125 -17.960938 15.453125 -18.546875 C 14.578125 -19.140625 13.484375 -19.4375 12.171875 -19.4375 C 10.796875 -19.4375 9.65625 -19.109375 8.75 -18.453125 C 7.851562 -17.796875 7.179688 -16.953125 6.734375 -15.921875 C 6.285156 -14.890625 6.066406 -13.832031 6.078125 -12.75 Z M 6.078125 -12.75 "/></g></g><g style="fill:#000000;fill-opacity:1;"><g transform="translate(376.671875, 598.74491)"><path style="stroke:none" d="M 11.0625 0.421875 C 9.53125 0.421875 8.109375 0.1875 6.796875 -0.28125 C 5.484375 -0.757812 4.394531 -1.503906 3.53125 -2.515625 C 2.664062 -3.535156 2.117188 -4.832031 1.890625 -6.40625 L 5.46875 -6.40625 C 5.664062 -5.539062 6.019531 -4.816406 6.53125 -4.234375 C 7.050781 -3.660156 7.703125 -3.226562 8.484375 -2.9375 C 9.265625 -2.65625 10.117188 -2.515625 11.046875 -2.515625 C 12.515625 -2.515625 13.703125 -2.789062 14.609375 -3.34375 C 15.515625 -3.894531 15.96875 -4.742188 15.96875 -5.890625 C 15.96875 -6.703125 15.726562 -7.351562 15.25 -7.84375 C 14.78125 -8.332031 14.050781 -8.6875 13.0625 -8.90625 L 8.515625 -10.046875 C 6.734375 -10.460938 5.3125 -11.125 4.25 -12.03125 C 3.1875 -12.945312 2.65625 -14.21875 2.65625 -15.84375 C 2.644531 -17.132812 2.953125 -18.269531 3.578125 -19.25 C 4.203125 -20.226562 5.132812 -21 6.375 -21.5625 C 7.625 -22.132812 9.179688 -22.421875 11.046875 -22.421875 C 13.421875 -22.421875 15.34375 -21.882812 16.8125 -20.8125 C 18.28125 -19.738281 19.046875 -18.171875 19.109375 -16.109375 L 15.640625 -16.109375 C 15.492188 -17.148438 15.019531 -17.976562 14.21875 -18.59375 C 13.414062 -19.21875 12.34375 -19.53125 11 -19.53125 C 9.59375 -19.53125 8.445312 -19.25 7.5625 -18.6875 C 6.6875 -18.125 6.25 -17.253906 6.25 -16.078125 C 6.25 -15.296875 6.5625 -14.679688 7.1875 -14.234375 C 7.8125 -13.796875 8.734375 -13.425781 9.953125 -13.125 L 14.359375 -12.015625 C 15.378906 -11.742188 16.21875 -11.390625 16.875 -10.953125 C 17.539062 -10.515625 18.066406 -10.023438 18.453125 -9.484375 C 18.847656 -8.941406 19.125 -8.375 19.28125 -7.78125 C 19.445312 -7.195312 19.53125 -6.640625 19.53125 -6.109375 C 19.53125 -4.753906 19.191406 -3.59375 18.515625 -2.625 C 17.847656 -1.65625 16.882812 -0.90625 15.625 -0.375 C 14.375 0.15625 12.851562 0.421875 11.0625 0.421875 Z M 11.0625 0.421875 "/></g></g><g style="fill:#000000;fill-opacity:1;"><g transform="translate(398.366805, 598.74491)"><path style="stroke:none" d="M 32.1875 -22 L 25.53125 0 L 21.65625 0 L 16.640625 -16.234375 L 11.875 0 L 8.015625 0 L 1.234375 -22 L 4.875 -22 L 9.90625 -5.078125 L 10.25 -5.078125 L 15.203125 -22 L 18.1875 -22 L 23.34375 -5.125 L 23.671875 -5.125 L 28.5 -22 Z M 32.1875 -22 "/></g></g><g style="fill:#000000;fill-opacity:1;"><g transform="translate(430.994138, 598.74491)"><path style="stroke:none" d="M 6.0625 -10.078125 C 6.0625 -8.691406 6.289062 -7.429688 6.75 -6.296875 C 7.21875 -5.171875 7.921875 -4.273438 8.859375 -3.609375 C 9.804688 -2.941406 10.988281 -2.609375 12.40625 -2.609375 C 13.8125 -2.609375 15.019531 -2.9375 16.03125 -3.59375 C 17.039062 -4.25 17.6875 -5.191406 17.96875 -6.421875 L 21.703125 -6.421875 C 21.429688 -4.929688 20.832031 -3.675781 19.90625 -2.65625 C 18.988281 -1.632812 17.875 -0.863281 16.5625 -0.34375 C 15.257812 0.164062 13.898438 0.421875 12.484375 0.421875 C 10.429688 0.421875 8.625 -0.0195312 7.0625 -0.90625 C 5.5 -1.800781 4.273438 -3.085938 3.390625 -4.765625 C 2.515625 -6.441406 2.078125 -8.445312 2.078125 -10.78125 C 2.078125 -13.09375 2.472656 -15.117188 3.265625 -16.859375 C 4.066406 -18.609375 5.222656 -19.972656 6.734375 -20.953125 C 8.242188 -21.929688 10.0625 -22.421875 12.1875 -22.421875 C 14.257812 -22.421875 16.007812 -21.972656 17.4375 -21.078125 C 18.875 -20.179688 19.960938 -18.921875 20.703125 -17.296875 C 21.453125 -15.679688 21.828125 -13.757812 21.828125 -11.53125 L 21.828125 -10.078125 Z M 6.078125 -12.75 L 18.046875 -12.75 C 18.046875 -14.007812 17.832031 -15.144531 17.40625 -16.15625 C 16.976562 -17.164062 16.328125 -17.960938 15.453125 -18.546875 C 14.578125 -19.140625 13.484375 -19.4375 12.171875 -19.4375 C 10.796875 -19.4375 9.65625 -19.109375 8.75 -18.453125 C 7.851562 -17.796875 7.179688 -16.953125 6.734375 -15.921875 C 6.285156 -14.890625 6.066406 -13.832031 6.078125 -12.75 Z M 6.078125 -12.75 "/></g></g><g style="fill:#000000;fill-opacity:1;"><g transform="translate(454.943668, 598.74491)"><path style="stroke:none" d="M 3.25 0 L 3.25 -31.609375 L 7.078125 -31.609375 L 7.078125 -18.765625 C 7.453125 -19.367188 7.953125 -19.9375 8.578125 -20.46875 C 9.203125 -21 9.957031 -21.429688 10.84375 -21.765625 C 11.738281 -22.097656 12.773438 -22.265625 13.953125 -22.265625 C 15.390625 -22.265625 16.6875 -22 17.84375 -21.46875 C 19.007812 -20.9375 19.929688 -20.179688 20.609375 -19.203125 C 21.296875 -18.222656 21.640625 -17.0625 21.640625 -15.71875 L 21.640625 0 L 17.703125 0 L 17.703125 -14.9375 C 17.703125 -16.25 17.25 -17.265625 16.34375 -17.984375 C 15.445312 -18.703125 14.273438 -19.0625 12.828125 -19.0625 C 11.847656 -19.0625 10.925781 -18.898438 10.0625 -18.578125 C 9.195312 -18.265625 8.5 -17.785156 7.96875 -17.140625 C 7.4375 -16.492188 7.171875 -15.671875 7.171875 -14.671875 L 7.171875 0 Z M 3.25 0 "/></g></g><g style="fill:#000000;fill-opacity:1;"><g transform="translate(479.467463, 598.74491)"><path style="stroke:none" d="M 3.25 0 L 3.25 -22 L 7 -22 L 7 -17.765625 C 7.363281 -18.816406 7.878906 -19.6875 8.546875 -20.375 C 9.210938 -21.0625 9.972656 -21.570312 10.828125 -21.90625 C 11.691406 -22.25 12.585938 -22.421875 13.515625 -22.421875 C 13.835938 -22.421875 14.15625 -22.398438 14.46875 -22.359375 C 14.78125 -22.316406 15.019531 -22.242188 15.1875 -22.140625 L 15.1875 -18.34375 C 14.976562 -18.4375 14.707031 -18.5 14.375 -18.53125 C 14.039062 -18.570312 13.757812 -18.59375 13.53125 -18.59375 C 12.644531 -18.644531 11.816406 -18.585938 11.046875 -18.421875 C 10.285156 -18.265625 9.613281 -17.988281 9.03125 -17.59375 C 8.457031 -17.195312 8.003906 -16.675781 7.671875 -16.03125 C 7.335938 -15.382812 7.171875 -14.597656 7.171875 -13.671875 L 7.171875 0 Z M 3.25 0 "/></g></g><g style="fill:#000000;fill-opacity:1;"><g transform="translate(493.84527, 598.74491)"><path style="stroke:none" d="M 13.421875 -12.546875 L 13.421875 -9.453125 L 2.640625 -9.421875 L 2.640625 -12.515625 Z M 13.421875 -12.546875 "/></g></g><g style="fill:#000000;fill-opacity:1;"><g transform="translate(502.926019, 598.74491)"><path style="stroke:none" d=""/></g></g><g style="fill:#000000;fill-opacity:1;"><g transform="translate(512.731271, 598.74491)"><path style="stroke:none" d="M 1.84375 5.34375 L 4.234375 0.078125 L 2.375 -0.015625 L 2.375 -4.71875 L 7.296875 -4.71875 L 7.296875 -0.640625 L 3.6875 5.34375 Z M 1.84375 5.34375 "/></g></g><g style="fill:#000000;fill-opacity:1;"><g transform="translate(522.727913, 598.74491)"><path style="stroke:none" d=""/></g></g><g style="fill:#000000;fill-opacity:1;"><g transform="translate(532.533165, 598.74491)"><path style="stroke:none" d="M 26.546875 -10.640625 C 26.546875 -8.265625 26.15625 -6.253906 25.375 -4.609375 C 24.59375 -2.972656 23.375 -1.722656 21.71875 -0.859375 C 20.070312 -0.00390625 17.929688 0.421875 15.296875 0.421875 C 12.628906 0.421875 10.46875 -0.015625 8.8125 -0.890625 C 7.164062 -1.773438 5.960938 -3.066406 5.203125 -4.765625 C 4.441406 -6.460938 4.0625 -8.554688 4.0625 -11.046875 L 4.0625 -30.765625 L 8.140625 -30.765625 L 8.140625 -10.4375 C 8.140625 -7.957031 8.753906 -6.097656 9.984375 -4.859375 C 11.222656 -3.628906 12.992188 -3.015625 15.296875 -3.015625 C 16.835938 -3.015625 18.148438 -3.285156 19.234375 -3.828125 C 20.328125 -4.367188 21.160156 -5.1875 21.734375 -6.28125 C 22.304688 -7.382812 22.59375 -8.769531 22.59375 -10.4375 L 22.59375 -30.765625 L 26.546875 -30.765625 Z M 26.546875 -10.640625 "/></g></g><g style="fill:#000000;fill-opacity:1;"><g transform="translate(562.331839, 598.74491)"><path style="stroke:none" d="M 14.515625 0.421875 C 13.066406 0.421875 11.660156 0.242188 10.296875 -0.109375 C 8.929688 -0.472656 7.695312 -1.015625 6.59375 -1.734375 C 5.488281 -2.460938 4.570312 -3.363281 3.84375 -4.4375 C 3.113281 -5.507812 2.65625 -6.753906 2.46875 -8.171875 L 6.59375 -8.171875 C 6.851562 -7.003906 7.359375 -6.023438 8.109375 -5.234375 C 8.867188 -4.441406 9.796875 -3.84375 10.890625 -3.4375 C 11.992188 -3.039062 13.191406 -2.84375 14.484375 -2.84375 C 15.929688 -2.84375 17.222656 -3.046875 18.359375 -3.453125 C 19.503906 -3.859375 20.40625 -4.4375 21.0625 -5.1875 C 21.726562 -5.9375 22.0625 -6.835938 22.0625 -7.890625 C 22.0625 -8.816406 21.851562 -9.617188 21.4375 -10.296875 C 21.019531 -10.972656 20.410156 -11.535156 19.609375 -11.984375 C 18.816406 -12.441406 17.851562 -12.800781 16.71875 -13.0625 L 10.671875 -14.46875 C 8.410156 -14.957031 6.632812 -15.84375 5.34375 -17.125 C 4.0625 -18.40625 3.40625 -20.09375 3.375 -22.1875 C 3.375 -23.957031 3.847656 -25.515625 4.796875 -26.859375 C 5.742188 -28.210938 7.039062 -29.265625 8.6875 -30.015625 C 10.34375 -30.765625 12.234375 -31.140625 14.359375 -31.140625 C 16.816406 -31.140625 18.878906 -30.722656 20.546875 -29.890625 C 22.222656 -29.054688 23.484375 -27.957031 24.328125 -26.59375 C 25.179688 -25.226562 25.617188 -23.773438 25.640625 -22.234375 L 21.578125 -22.234375 C 21.441406 -23.617188 21.03125 -24.71875 20.34375 -25.53125 C 19.65625 -26.351562 18.789062 -26.9375 17.75 -27.28125 C 16.71875 -27.625 15.59375 -27.796875 14.375 -27.796875 C 13.5 -27.796875 12.648438 -27.6875 11.828125 -27.46875 C 11.015625 -27.25 10.285156 -26.921875 9.640625 -26.484375 C 8.992188 -26.046875 8.476562 -25.5 8.09375 -24.84375 C 7.71875 -24.195312 7.53125 -23.441406 7.53125 -22.578125 C 7.53125 -21.460938 7.910156 -20.554688 8.671875 -19.859375 C 9.429688 -19.171875 10.8125 -18.578125 12.8125 -18.078125 L 18.65625 -16.671875 C 20.1875 -16.347656 21.4375 -15.867188 22.40625 -15.234375 C 23.382812 -14.597656 24.140625 -13.875 24.671875 -13.0625 C 25.203125 -12.25 25.566406 -11.40625 25.765625 -10.53125 C 25.972656 -9.65625 26.078125 -8.789062 26.078125 -7.9375 C 26.078125 -6.382812 25.613281 -4.972656 24.6875 -3.703125 C 23.769531 -2.441406 22.445312 -1.4375 20.71875 -0.6875 C 19 0.0507812 16.929688 0.421875 14.515625 0.421875 Z M 14.515625 0.421875 "/></g></g><g style="fill:#000000;fill-opacity:1;"><g transform="translate(591.130849, 598.74491)"><path style="stroke:none" d="M 13.421875 -12.546875 L 13.421875 -9.453125 L 2.640625 -9.421875 L 2.640625 -12.515625 Z M 13.421875 -12.546875 "/></g></g><g style="fill:#000000;fill-opacity:1;"><g transform="translate(606.125675, 598.74491)"><path style="stroke:none" d="M 1.765625 0 L 12.890625 -30.765625 L 17.34375 -30.765625 L 28.46875 0 L 24.4375 0 L 21.421875 -8.421875 L 8.84375 -8.421875 L 5.765625 0 Z M 9.84375 -12.046875 L 20.375 -12.046875 L 15.140625 -26.875 Z M 9.84375 -12.046875 "/></g></g><g style="fill:#000000;fill-opacity:1;"><g transform="translate(636.328463, 598.74491)"><path style="stroke:none" d="M 3.25 0 L 3.25 -22 L 7 -22 L 7 -17.765625 C 7.363281 -18.816406 7.878906 -19.6875 8.546875 -20.375 C 9.210938 -21.0625 9.972656 -21.570312 10.828125 -21.90625 C 11.691406 -22.25 12.585938 -22.421875 13.515625 -22.421875 C 13.835938 -22.421875 14.15625 -22.398438 14.46875 -22.359375 C 14.78125 -22.316406 15.019531 -22.242188 15.1875 -22.140625 L 15.1875 -18.34375 C 14.976562 -18.4375 14.707031 -18.5 14.375 -18.53125 C 14.039062 -18.570312 13.757812 -18.59375 13.53125 -18.59375 C 12.644531 -18.644531 11.816406 -18.585938 11.046875 -18.421875 C 10.285156 -18.265625 9.613281 -17.988281 9.03125 -17.59375 C 8.457031 -17.195312 8.003906 -16.675781 7.671875 -16.03125 C 7.335938 -15.382812 7.171875 -14.597656 7.171875 -13.671875 L 7.171875 0 Z M 3.25 0 "/></g></g><g style="fill:#000000;fill-opacity:1;"><g transform="translate(652.812349, 598.74491)"><path style="stroke:none" d="M 3.25 0 L 3.25 -22 L 7.046875 -22 L 7.046875 -18.8125 C 7.648438 -19.769531 8.484375 -20.609375 9.546875 -21.328125 C 10.609375 -22.054688 11.992188 -22.421875 13.703125 -22.421875 C 14.492188 -22.421875 15.300781 -22.285156 16.125 -22.015625 C 16.957031 -21.742188 17.722656 -21.335938 18.421875 -20.796875 C 19.117188 -20.265625 19.660156 -19.609375 20.046875 -18.828125 C 20.722656 -19.898438 21.640625 -20.765625 22.796875 -21.421875 C 23.960938 -22.085938 25.273438 -22.421875 26.734375 -22.421875 C 27.503906 -22.421875 28.304688 -22.300781 29.140625 -22.0625 C 29.984375 -21.832031 30.757812 -21.421875 31.46875 -20.828125 C 32.1875 -20.242188 32.769531 -19.429688 33.21875 -18.390625 C 33.675781 -17.347656 33.90625 -16.007812 33.90625 -14.375 L 33.90625 0 L 29.953125 0 L 29.953125 -14 C 29.953125 -15.332031 29.738281 -16.363281 29.3125 -17.09375 C 28.882812 -17.820312 28.328125 -18.332031 27.640625 -18.625 C 26.953125 -18.925781 26.21875 -19.078125 25.4375 -19.078125 C 24.757812 -19.078125 24.035156 -18.941406 23.265625 -18.671875 C 22.503906 -18.410156 21.851562 -17.957031 21.3125 -17.3125 C 20.769531 -16.675781 20.5 -15.804688 20.5 -14.703125 L 20.5 0 L 16.59375 0 L 16.59375 -15.140625 C 16.59375 -16.003906 16.359375 -16.726562 15.890625 -17.3125 C 15.429688 -17.894531 14.859375 -18.332031 14.171875 -18.625 C 13.484375 -18.925781 12.800781 -19.078125 12.125 -19.078125 C 11.375 -19.078125 10.617188 -18.925781 9.859375 -18.625 C 9.097656 -18.332031 8.457031 -17.863281 7.9375 -17.21875 C 7.425781 -16.570312 7.171875 -15.734375 7.171875 -14.703125 L 7.171875 0 Z M 3.25 0 "/></g></g><g style="fill:#000000;fill-opacity:1;"><g transform="translate(688.906646, 598.74491)"><path style="stroke:none" d="M 5.421875 7.015625 C 4.128906 7.015625 3.242188 6.921875 2.765625 6.734375 C 2.285156 6.554688 2.046875 6.46875 2.046875 6.46875 L 2.046875 3.921875 L 4.28125 3.953125 C 5.101562 3.984375 5.78125 3.925781 6.3125 3.78125 C 6.851562 3.644531 7.285156 3.453125 7.609375 3.203125 C 7.941406 2.960938 8.195312 2.691406 8.375 2.390625 C 8.550781 2.097656 8.695312 1.816406 8.8125 1.546875 L 9.578125 -0.53125 L 0.984375 -22 L 4.953125 -22 L 11.4375 -5.015625 L 17.890625 -22 L 21.734375 -22 L 12.46875 1.65625 C 11.894531 3.050781 11.257812 4.132812 10.5625 4.90625 C 9.863281 5.6875 9.082031 6.234375 8.21875 6.546875 C 7.363281 6.859375 6.429688 7.015625 5.421875 7.015625 Z M 5.421875 7.015625 "/></g></g><g style="fill:#000000;fill-opacity:1;"><g transform="translate(711.388518, 598.74491)"><path style="stroke:none" d="M 13.421875 -12.546875 L 13.421875 -9.453125 L 2.640625 -9.421875 L 2.640625 -12.515625 Z M 13.421875 -12.546875 "/></g></g><g style="fill:#000000;fill-opacity:1;"><g transform="translate(130.335934, 657.994907)"><path style="stroke:none" d="M 4.0625 0 L 4.0625 -30.765625 L 13.953125 -30.765625 C 17.703125 -30.765625 20.535156 -30.078125 22.453125 -28.703125 C 24.378906 -27.328125 25.34375 -25.335938 25.34375 -22.734375 C 25.34375 -21.109375 24.921875 -19.710938 24.078125 -18.546875 C 23.234375 -17.390625 21.753906 -16.429688 19.640625 -15.671875 C 20.835938 -15.421875 21.851562 -15.050781 22.6875 -14.5625 C 23.519531 -14.082031 24.1875 -13.519531 24.6875 -12.875 C 25.1875 -12.226562 25.546875 -11.515625 25.765625 -10.734375 C 25.992188 -9.960938 26.109375 -9.144531 26.109375 -8.28125 C 26.109375 -5.5 25.117188 -3.421875 23.140625 -2.046875 C 21.160156 -0.679688 18.207031 0 14.28125 0 Z M 8 -3.28125 L 14.234375 -3.28125 C 16.796875 -3.28125 18.75 -3.703125 20.09375 -4.546875 C 21.4375 -5.390625 22.109375 -6.691406 22.109375 -8.453125 C 22.109375 -9.734375 21.773438 -10.773438 21.109375 -11.578125 C 20.453125 -12.378906 19.5625 -12.960938 18.4375 -13.328125 C 17.320312 -13.703125 16.078125 -13.890625 14.703125 -13.890625 L 8 -13.890625 Z M 8 -17.234375 L 14.703125 -17.234375 C 15.503906 -17.234375 16.300781 -17.3125 17.09375 -17.46875 C 17.894531 -17.625 18.628906 -17.890625 19.296875 -18.265625 C 19.960938 -18.648438 20.5 -19.164062 20.90625 -19.8125 C 21.320312 -20.457031 21.53125 -21.269531 21.53125 -22.25 C 21.53125 -24.039062 20.84375 -25.363281 19.46875 -26.21875 C 18.101562 -27.070312 16.328125 -27.5 14.140625 -27.5 L 8 -27.5 Z M 8 -17.234375 "/></g></g><g style="fill:#000000;fill-opacity:1;"><g transform="translate(159.00732, 657.994907)"><path style="stroke:none" d="M 6.0625 -10.078125 C 6.0625 -8.691406 6.289062 -7.429688 6.75 -6.296875 C 7.21875 -5.171875 7.921875 -4.273438 8.859375 -3.609375 C 9.804688 -2.941406 10.988281 -2.609375 12.40625 -2.609375 C 13.8125 -2.609375 15.019531 -2.9375 16.03125 -3.59375 C 17.039062 -4.25 17.6875 -5.191406 17.96875 -6.421875 L 21.703125 -6.421875 C 21.429688 -4.929688 20.832031 -3.675781 19.90625 -2.65625 C 18.988281 -1.632812 17.875 -0.863281 16.5625 -0.34375 C 15.257812 0.164062 13.898438 0.421875 12.484375 0.421875 C 10.429688 0.421875 8.625 -0.0195312 7.0625 -0.90625 C 5.5 -1.800781 4.273438 -3.085938 3.390625 -4.765625 C 2.515625 -6.441406 2.078125 -8.445312 2.078125 -10.78125 C 2.078125 -13.09375 2.472656 -15.117188 3.265625 -16.859375 C 4.066406 -18.609375 5.222656 -19.972656 6.734375 -20.953125 C 8.242188 -21.929688 10.0625 -22.421875 12.1875 -22.421875 C 14.257812 -22.421875 16.007812 -21.972656 17.4375 -21.078125 C 18.875 -20.179688 19.960938 -18.921875 20.703125 -17.296875 C 21.453125 -15.679688 21.828125 -13.757812 21.828125 -11.53125 L 21.828125 -10.078125 Z M 6.078125 -12.75 L 18.046875 -12.75 C 18.046875 -14.007812 17.832031 -15.144531 17.40625 -16.15625 C 16.976562 -17.164062 16.328125 -17.960938 15.453125 -18.546875 C 14.578125 -19.140625 13.484375 -19.4375 12.171875 -19.4375 C 10.796875 -19.4375 9.65625 -19.109375 8.75 -18.453125 C 7.851562 -17.796875 7.179688 -16.953125 6.734375 -15.921875 C 6.285156 -14.890625 6.066406 -13.832031 6.078125 -12.75 Z M 6.078125 -12.75 "/></g></g><g style="fill:#000000;fill-opacity:1;"><g transform="translate(182.956839, 657.994907)"><path style="stroke:none" d="M 22.578125 0 L 18.40625 0 L 11.515625 -11.046875 L 7.171875 -6.546875 L 7.171875 0 L 3.25 0 L 3.25 -31.609375 L 7.171875 -31.609375 L 7.171875 -11 L 17.515625 -22 L 22.015625 -22 L 14.078125 -13.609375 Z M 22.578125 0 "/></g></g><g style="fill:#000000;fill-opacity:1;"><g transform="translate(206.948907, 657.994907)"><path style="stroke:none" d="M 8.8125 0.28125 C 7.613281 0.28125 6.648438 0.117188 5.921875 -0.203125 C 5.191406 -0.535156 4.628906 -0.976562 4.234375 -1.53125 C 3.847656 -2.082031 3.585938 -2.71875 3.453125 -3.4375 C 3.316406 -4.15625 3.25 -4.894531 3.25 -5.65625 L 3.25 -31.609375 L 7.125 -31.609375 L 7.125 -6.046875 C 7.125 -4.929688 7.335938 -4.097656 7.765625 -3.546875 C 8.203125 -2.992188 8.8125 -2.691406 9.59375 -2.640625 L 10.78125 -2.609375 L 10.78125 -0.0625 C 10.457031 0.03125 10.117188 0.109375 9.765625 0.171875 C 9.410156 0.242188 9.09375 0.28125 8.8125 0.28125 Z M 8.8125 0.28125 "/></g></g><g style="fill:#000000;fill-opacity:1;"><g transform="translate(219.242642, 657.994907)"><path style="stroke:none" d="M 6.0625 -10.078125 C 6.0625 -8.691406 6.289062 -7.429688 6.75 -6.296875 C 7.21875 -5.171875 7.921875 -4.273438 8.859375 -3.609375 C 9.804688 -2.941406 10.988281 -2.609375 12.40625 -2.609375 C 13.8125 -2.609375 15.019531 -2.9375 16.03125 -3.59375 C 17.039062 -4.25 17.6875 -5.191406 17.96875 -6.421875 L 21.703125 -6.421875 C 21.429688 -4.929688 20.832031 -3.675781 19.90625 -2.65625 C 18.988281 -1.632812 17.875 -0.863281 16.5625 -0.34375 C 15.257812 0.164062 13.898438 0.421875 12.484375 0.421875 C 10.429688 0.421875 8.625 -0.0195312 7.0625 -0.90625 C 5.5 -1.800781 4.273438 -3.085938 3.390625 -4.765625 C 2.515625 -6.441406 2.078125 -8.445312 2.078125 -10.78125 C 2.078125 -13.09375 2.472656 -15.117188 3.265625 -16.859375 C 4.066406 -18.609375 5.222656 -19.972656 6.734375 -20.953125 C 8.242188 -21.929688 10.0625 -22.421875 12.1875 -22.421875 C 14.257812 -22.421875 16.007812 -21.972656 17.4375 -21.078125 C 18.875 -20.179688 19.960938 -18.921875 20.703125 -17.296875 C 21.453125 -15.679688 21.828125 -13.757812 21.828125 -11.53125 L 21.828125 -10.078125 Z M 6.078125 -12.75 L 18.046875 -12.75 C 18.046875 -14.007812 17.832031 -15.144531 17.40625 -16.15625 C 16.976562 -17.164062 16.328125 -17.960938 15.453125 -18.546875 C 14.578125 -19.140625 13.484375 -19.4375 12.171875 -19.4375 C 10.796875 -19.4375 9.65625 -19.109375 8.75 -18.453125 C 7.851562 -17.796875 7.179688 -16.953125 6.734375 -15.921875 C 6.285156 -14.890625 6.066406 -13.832031 6.078125 -12.75 Z M 6.078125 -12.75 "/></g></g><g style="fill:#000000;fill-opacity:1;"><g transform="translate(243.19216, 657.994907)"><path style="stroke:none" d="M 7.515625 -22 L 7.515625 0 L 3.703125 0 L 3.703125 -22 Z M 7.59375 -30.734375 L 7.59375 -26.65625 L 3.578125 -26.65625 L 3.578125 -30.734375 Z M 7.59375 -30.734375 "/></g></g><g style="fill:#000000;fill-opacity:1;"><g transform="translate(254.358675, 657.994907)"><path style="stroke:none" d="M 11.1875 0.421875 C 8.332031 0.421875 6.066406 -0.554688 4.390625 -2.515625 C 2.722656 -4.472656 1.890625 -7.328125 1.890625 -11.078125 C 1.890625 -13.367188 2.226562 -15.363281 2.90625 -17.0625 C 3.582031 -18.757812 4.582031 -20.078125 5.90625 -21.015625 C 7.238281 -21.953125 8.898438 -22.421875 10.890625 -22.421875 C 11.941406 -22.421875 12.875 -22.285156 13.6875 -22.015625 C 14.5 -21.742188 15.203125 -21.398438 15.796875 -20.984375 C 16.398438 -20.578125 16.890625 -20.15625 17.265625 -19.71875 C 17.640625 -19.28125 17.921875 -18.878906 18.109375 -18.515625 L 18.109375 -31.609375 L 22.0625 -31.609375 L 22.0625 0 L 19.0625 0 L 18.640625 -4.515625 C 18.492188 -4.085938 18.265625 -3.59375 17.953125 -3.03125 C 17.640625 -2.46875 17.195312 -1.921875 16.625 -1.390625 C 16.0625 -0.859375 15.335938 -0.421875 14.453125 -0.078125 C 13.566406 0.253906 12.476562 0.421875 11.1875 0.421875 Z M 11.890625 -2.59375 C 14.117188 -2.59375 15.710938 -3.269531 16.671875 -4.625 C 17.628906 -5.976562 18.109375 -8.195312 18.109375 -11.28125 C 18.085938 -12.988281 17.867188 -14.445312 17.453125 -15.65625 C 17.035156 -16.863281 16.382812 -17.78125 15.5 -18.40625 C 14.613281 -19.039062 13.441406 -19.359375 11.984375 -19.359375 C 10.160156 -19.359375 8.679688 -18.710938 7.546875 -17.421875 C 6.410156 -16.128906 5.84375 -14.082031 5.84375 -11.28125 C 5.84375 -8.519531 6.359375 -6.378906 7.390625 -4.859375 C 8.421875 -3.347656 9.921875 -2.59375 11.890625 -2.59375 Z M 11.890625 -2.59375 "/></g></g><g style="fill:#000000;fill-opacity:1;"><g transform="translate(279.669446, 657.994907)"><path style="stroke:none" d="M 11.34375 0.421875 C 10.1875 0.410156 9.101562 0.25 8.09375 -0.0625 C 7.082031 -0.382812 6.1875 -0.859375 5.40625 -1.484375 C 4.625 -2.109375 4.007812 -2.882812 3.5625 -3.8125 C 3.113281 -4.75 2.890625 -5.832031 2.890625 -7.0625 L 2.890625 -22 L 6.828125 -22 L 6.828125 -7.46875 C 6.828125 -6.03125 7.269531 -4.863281 8.15625 -3.96875 C 9.039062 -3.082031 10.378906 -2.640625 12.171875 -2.640625 C 13.785156 -2.640625 15.082031 -3.0625 16.0625 -3.90625 C 17.050781 -4.75 17.546875 -6.007812 17.546875 -7.6875 L 17.546875 -22 L 21.46875 -22 L 21.46875 0 L 18.34375 0 L 17.9375 -4.21875 C 17.664062 -3.101562 17.207031 -2.207031 16.5625 -1.53125 C 15.914062 -0.851562 15.140625 -0.351562 14.234375 -0.03125 C 13.335938 0.289062 12.375 0.441406 11.34375 0.421875 Z M 11.34375 0.421875 "/></g></g><g style="fill:#000000;fill-opacity:1;"><g transform="translate(304.299648, 657.994907)"><path style="stroke:none" d="M 3.25 0 L 3.25 -22 L 7.0625 -22 L 7.0625 -18.8125 C 7.414062 -19.414062 7.90625 -19.988281 8.53125 -20.53125 C 9.164062 -21.070312 9.929688 -21.503906 10.828125 -21.828125 C 11.734375 -22.148438 12.773438 -22.3125 13.953125 -22.3125 C 15.347656 -22.3125 16.628906 -22.035156 17.796875 -21.484375 C 18.960938 -20.929688 19.894531 -20.066406 20.59375 -18.890625 C 21.300781 -17.722656 21.65625 -16.21875 21.65625 -14.375 L 21.65625 0 L 17.71875 0 L 17.71875 -14 C 17.71875 -15.71875 17.265625 -16.988281 16.359375 -17.8125 C 15.460938 -18.644531 14.300781 -19.0625 12.875 -19.0625 C 11.875 -19.0625 10.941406 -18.898438 10.078125 -18.578125 C 9.210938 -18.265625 8.507812 -17.785156 7.96875 -17.140625 C 7.4375 -16.492188 7.171875 -15.679688 7.171875 -14.703125 L 7.171875 0 Z M 3.25 0 "/></g></g><g style="fill:#000000;fill-opacity:1;"><g transform="translate(328.844729, 657.994907)"><path style="stroke:none" d="M 12.53125 7.28125 C 9.070312 7.28125 6.378906 6.78125 4.453125 5.78125 C 2.535156 4.78125 1.578125 3.347656 1.578125 1.484375 C 1.578125 0.691406 1.757812 0.0195312 2.125 -0.53125 C 2.5 -1.09375 2.941406 -1.554688 3.453125 -1.921875 C 3.960938 -2.296875 4.4375 -2.59375 4.875 -2.8125 C 5.3125 -3.039062 5.59375 -3.203125 5.71875 -3.296875 C 5.476562 -3.441406 5.175781 -3.617188 4.8125 -3.828125 C 4.457031 -4.035156 4.144531 -4.316406 3.875 -4.671875 C 3.601562 -5.035156 3.46875 -5.5 3.46875 -6.0625 C 3.46875 -6.757812 3.789062 -7.394531 4.4375 -7.96875 C 5.09375 -8.550781 6.0625 -8.988281 7.34375 -9.28125 C 6.050781 -9.925781 5.039062 -10.785156 4.3125 -11.859375 C 3.59375 -12.941406 3.234375 -14.113281 3.234375 -15.375 C 3.234375 -16.800781 3.617188 -18.035156 4.390625 -19.078125 C 5.160156 -20.128906 6.257812 -20.9375 7.6875 -21.5 C 9.125 -22.0625 10.832031 -22.34375 12.8125 -22.34375 C 14.238281 -22.34375 15.441406 -22.175781 16.421875 -21.84375 C 17.398438 -21.507812 18.304688 -21.035156 19.140625 -20.421875 C 19.367188 -20.523438 19.726562 -20.675781 20.21875 -20.875 C 20.707031 -21.082031 21.25 -21.304688 21.84375 -21.546875 C 22.4375 -21.785156 22.992188 -22.015625 23.515625 -22.234375 C 24.035156 -22.460938 24.453125 -22.628906 24.765625 -22.734375 L 24.734375 -19.109375 L 20.890625 -18.375 C 21.097656 -17.925781 21.269531 -17.429688 21.40625 -16.890625 C 21.539062 -16.347656 21.609375 -15.84375 21.609375 -15.375 C 21.609375 -14.082031 21.269531 -12.910156 20.59375 -11.859375 C 19.925781 -10.816406 18.910156 -9.984375 17.546875 -9.359375 C 16.191406 -8.734375 14.488281 -8.421875 12.4375 -8.421875 C 12.269531 -8.421875 12.054688 -8.425781 11.796875 -8.4375 C 11.535156 -8.445312 11.3125 -8.457031 11.125 -8.46875 C 9.625 -8.425781 8.585938 -8.257812 8.015625 -7.96875 C 7.453125 -7.675781 7.171875 -7.351562 7.171875 -7 C 7.171875 -6.582031 7.488281 -6.296875 8.125 -6.140625 C 8.757812 -5.984375 9.84375 -5.851562 11.375 -5.75 C 11.925781 -5.71875 12.609375 -5.679688 13.421875 -5.640625 C 14.242188 -5.597656 15.148438 -5.539062 16.140625 -5.46875 C 18.453125 -5.320312 20.234375 -4.734375 21.484375 -3.703125 C 22.734375 -2.671875 23.359375 -1.273438 23.359375 0.484375 C 23.359375 2.484375 22.460938 4.113281 20.671875 5.375 C 18.890625 6.644531 16.175781 7.28125 12.53125 7.28125 Z M 13.234375 4.75 C 15.265625 4.75 16.816406 4.441406 17.890625 3.828125 C 18.960938 3.222656 19.5 2.300781 19.5 1.0625 C 19.5 0.1875 19.171875 -0.53125 18.515625 -1.09375 C 17.859375 -1.65625 16.859375 -1.976562 15.515625 -2.0625 L 9.34375 -2.46875 C 8.789062 -2.5 8.210938 -2.359375 7.609375 -2.046875 C 7.015625 -1.742188 6.507812 -1.320312 6.09375 -0.78125 C 5.675781 -0.25 5.46875 0.359375 5.46875 1.046875 C 5.46875 2.203125 6.101562 3.109375 7.375 3.765625 C 8.644531 4.421875 10.597656 4.75 13.234375 4.75 Z M 12.546875 -10.953125 C 14.140625 -10.953125 15.421875 -11.320312 16.390625 -12.0625 C 17.359375 -12.800781 17.84375 -13.894531 17.84375 -15.34375 C 17.84375 -16.832031 17.359375 -17.960938 16.390625 -18.734375 C 15.421875 -19.515625 14.140625 -19.90625 12.546875 -19.90625 C 10.941406 -19.90625 9.644531 -19.507812 8.65625 -18.71875 C 7.675781 -17.9375 7.1875 -16.8125 7.1875 -15.34375 C 7.1875 -13.945312 7.65625 -12.863281 8.59375 -12.09375 C 9.53125 -11.332031 10.847656 -10.953125 12.546875 -10.953125 Z M 12.546875 -10.953125 "/></g></g><g style="fill:#000000;fill-opacity:1;"><g transform="translate(355.261514, 657.994907)"><path style="stroke:none" d=""/></g></g><g style="fill:#000000;fill-opacity:1;"><g transform="translate(365.066788, 657.994907)"><path style="stroke:none" d="M 11.34375 0.421875 C 10.1875 0.410156 9.101562 0.25 8.09375 -0.0625 C 7.082031 -0.382812 6.1875 -0.859375 5.40625 -1.484375 C 4.625 -2.109375 4.007812 -2.882812 3.5625 -3.8125 C 3.113281 -4.75 2.890625 -5.832031 2.890625 -7.0625 L 2.890625 -22 L 6.828125 -22 L 6.828125 -7.46875 C 6.828125 -6.03125 7.269531 -4.863281 8.15625 -3.96875 C 9.039062 -3.082031 10.378906 -2.640625 12.171875 -2.640625 C 13.785156 -2.640625 15.082031 -3.0625 16.0625 -3.90625 C 17.050781 -4.75 17.546875 -6.007812 17.546875 -7.6875 L 17.546875 -22 L 21.46875 -22 L 21.46875 0 L 18.34375 0 L 17.9375 -4.21875 C 17.664062 -3.101562 17.207031 -2.207031 16.5625 -1.53125 C 15.914062 -0.851562 15.140625 -0.351562 14.234375 -0.03125 C 13.335938 0.289062 12.375 0.441406 11.34375 0.421875 Z M 11.34375 0.421875 "/></g></g><g style="fill:#000000;fill-opacity:1;"><g transform="translate(389.69699, 657.994907)"><path style="stroke:none" d="M 3.25 0 L 3.25 -22 L 7.0625 -22 L 7.0625 -18.8125 C 7.414062 -19.414062 7.90625 -19.988281 8.53125 -20.53125 C 9.164062 -21.070312 9.929688 -21.503906 10.828125 -21.828125 C 11.734375 -22.148438 12.773438 -22.3125 13.953125 -22.3125 C 15.347656 -22.3125 16.628906 -22.035156 17.796875 -21.484375 C 18.960938 -20.929688 19.894531 -20.066406 20.59375 -18.890625 C 21.300781 -17.722656 21.65625 -16.21875 21.65625 -14.375 L 21.65625 0 L 17.71875 0 L 17.71875 -14 C 17.71875 -15.71875 17.265625 -16.988281 16.359375 -17.8125 C 15.460938 -18.644531 14.300781 -19.0625 12.875 -19.0625 C 11.875 -19.0625 10.941406 -18.898438 10.078125 -18.578125 C 9.210938 -18.265625 8.507812 -17.785156 7.96875 -17.140625 C 7.4375 -16.492188 7.171875 -15.679688 7.171875 -14.703125 L 7.171875 0 Z M 3.25 0 "/></g></g><g style="fill:#000000;fill-opacity:1;"><g transform="translate(414.242048, 657.994907)"><path style="stroke:none" d="M 11.1875 0.421875 C 8.332031 0.421875 6.066406 -0.554688 4.390625 -2.515625 C 2.722656 -4.472656 1.890625 -7.328125 1.890625 -11.078125 C 1.890625 -13.367188 2.226562 -15.363281 2.90625 -17.0625 C 3.582031 -18.757812 4.582031 -20.078125 5.90625 -21.015625 C 7.238281 -21.953125 8.898438 -22.421875 10.890625 -22.421875 C 11.941406 -22.421875 12.875 -22.285156 13.6875 -22.015625 C 14.5 -21.742188 15.203125 -21.398438 15.796875 -20.984375 C 16.398438 -20.578125 16.890625 -20.15625 17.265625 -19.71875 C 17.640625 -19.28125 17.921875 -18.878906 18.109375 -18.515625 L 18.109375 -31.609375 L 22.0625 -31.609375 L 22.0625 0 L 19.0625 0 L 18.640625 -4.515625 C 18.492188 -4.085938 18.265625 -3.59375 17.953125 -3.03125 C 17.640625 -2.46875 17.195312 -1.921875 16.625 -1.390625 C 16.0625 -0.859375 15.335938 -0.421875 14.453125 -0.078125 C 13.566406 0.253906 12.476562 0.421875 11.1875 0.421875 Z M 11.890625 -2.59375 C 14.117188 -2.59375 15.710938 -3.269531 16.671875 -4.625 C 17.628906 -5.976562 18.109375 -8.195312 18.109375 -11.28125 C 18.085938 -12.988281 17.867188 -14.445312 17.453125 -15.65625 C 17.035156 -16.863281 16.382812 -17.78125 15.5 -18.40625 C 14.613281 -19.039062 13.441406 -19.359375 11.984375 -19.359375 C 10.160156 -19.359375 8.679688 -18.710938 7.546875 -17.421875 C 6.410156 -16.128906 5.84375 -14.082031 5.84375 -11.28125 C 5.84375 -8.519531 6.359375 -6.378906 7.390625 -4.859375 C 8.421875 -3.347656 9.921875 -2.59375 11.890625 -2.59375 Z M 11.890625 -2.59375 "/></g></g><g style="fill:#000000;fill-opacity:1;"><g transform="translate(439.552808, 657.994907)"><path style="stroke:none" d=""/></g></g><g style="fill:#000000;fill-opacity:1;"><g transform="translate(449.358082, 657.994907)"><path style="stroke:none" d="M 1.765625 0 L 12.890625 -30.765625 L 17.34375 -30.765625 L 28.46875 0 L 24.4375 0 L 21.421875 -8.421875 L 8.84375 -8.421875 L 5.765625 0 Z M 9.84375 -12.046875 L 20.375 -12.046875 L 15.140625 -26.875 Z M 9.84375 -12.046875 "/></g></g><g style="fill:#000000;fill-opacity:1;"><g transform="translate(479.199214, 657.994907)"><path style="stroke:none" d="M 11.34375 0.421875 C 10.1875 0.410156 9.101562 0.25 8.09375 -0.0625 C 7.082031 -0.382812 6.1875 -0.859375 5.40625 -1.484375 C 4.625 -2.109375 4.007812 -2.882812 3.5625 -3.8125 C 3.113281 -4.75 2.890625 -5.832031 2.890625 -7.0625 L 2.890625 -22 L 6.828125 -22 L 6.828125 -7.46875 C 6.828125 -6.03125 7.269531 -4.863281 8.15625 -3.96875 C 9.039062 -3.082031 10.378906 -2.640625 12.171875 -2.640625 C 13.785156 -2.640625 15.082031 -3.0625 16.0625 -3.90625 C 17.050781 -4.75 17.546875 -6.007812 17.546875 -7.6875 L 17.546875 -22 L 21.46875 -22 L 21.46875 0 L 18.34375 0 L 17.9375 -4.21875 C 17.664062 -3.101562 17.207031 -2.207031 16.5625 -1.53125 C 15.914062 -0.851562 15.140625 -0.351562 14.234375 -0.03125 C 13.335938 0.289062 12.375 0.441406 11.34375 0.421875 Z M 11.34375 0.421875 "/></g></g><g style="fill:#000000;fill-opacity:1;"><g transform="translate(503.552835, 657.994907)"><path style="stroke:none" d="M 11.0625 0.421875 C 9.53125 0.421875 8.109375 0.1875 6.796875 -0.28125 C 5.484375 -0.757812 4.394531 -1.503906 3.53125 -2.515625 C 2.664062 -3.535156 2.117188 -4.832031 1.890625 -6.40625 L 5.46875 -6.40625 C 5.664062 -5.539062 6.019531 -4.816406 6.53125 -4.234375 C 7.050781 -3.660156 7.703125 -3.226562 8.484375 -2.9375 C 9.265625 -2.65625 10.117188 -2.515625 11.046875 -2.515625 C 12.515625 -2.515625 13.703125 -2.789062 14.609375 -3.34375 C 15.515625 -3.894531 15.96875 -4.742188 15.96875 -5.890625 C 15.96875 -6.703125 15.726562 -7.351562 15.25 -7.84375 C 14.78125 -8.332031 14.050781 -8.6875 13.0625 -8.90625 L 8.515625 -10.046875 C 6.734375 -10.460938 5.3125 -11.125 4.25 -12.03125 C 3.1875 -12.945312 2.65625 -14.21875 2.65625 -15.84375 C 2.644531 -17.132812 2.953125 -18.269531 3.578125 -19.25 C 4.203125 -20.226562 5.132812 -21 6.375 -21.5625 C 7.625 -22.132812 9.179688 -22.421875 11.046875 -22.421875 C 13.421875 -22.421875 15.34375 -21.882812 16.8125 -20.8125 C 18.28125 -19.738281 19.046875 -18.171875 19.109375 -16.109375 L 15.640625 -16.109375 C 15.492188 -17.148438 15.019531 -17.976562 14.21875 -18.59375 C 13.414062 -19.21875 12.34375 -19.53125 11 -19.53125 C 9.59375 -19.53125 8.445312 -19.25 7.5625 -18.6875 C 6.6875 -18.125 6.25 -17.253906 6.25 -16.078125 C 6.25 -15.296875 6.5625 -14.679688 7.1875 -14.234375 C 7.8125 -13.796875 8.734375 -13.425781 9.953125 -13.125 L 14.359375 -12.015625 C 15.378906 -11.742188 16.21875 -11.390625 16.875 -10.953125 C 17.539062 -10.515625 18.066406 -10.023438 18.453125 -9.484375 C 18.847656 -8.941406 19.125 -8.375 19.28125 -7.78125 C 19.445312 -7.195312 19.53125 -6.640625 19.53125 -6.109375 C 19.53125 -4.753906 19.191406 -3.59375 18.515625 -2.625 C 17.847656 -1.65625 16.882812 -0.90625 15.625 -0.375 C 14.375 0.15625 12.851562 0.421875 11.0625 0.421875 Z M 11.0625 0.421875 "/></g></g><g style="fill:#000000;fill-opacity:1;"><g transform="translate(525.311623, 657.994907)"><path style="stroke:none" d="M 3.25 0 L 3.25 -22 L 7 -22 L 7 -17.765625 C 7.363281 -18.816406 7.878906 -19.6875 8.546875 -20.375 C 9.210938 -21.0625 9.972656 -21.570312 10.828125 -21.90625 C 11.691406 -22.25 12.585938 -22.421875 13.515625 -22.421875 C 13.835938 -22.421875 14.15625 -22.398438 14.46875 -22.359375 C 14.78125 -22.316406 15.019531 -22.242188 15.1875 -22.140625 L 15.1875 -18.34375 C 14.976562 -18.4375 14.707031 -18.5 14.375 -18.53125 C 14.039062 -18.570312 13.757812 -18.59375 13.53125 -18.59375 C 12.644531 -18.644531 11.816406 -18.585938 11.046875 -18.421875 C 10.285156 -18.265625 9.613281 -17.988281 9.03125 -17.59375 C 8.457031 -17.195312 8.003906 -16.675781 7.671875 -16.03125 C 7.335938 -15.382812 7.171875 -14.597656 7.171875 -13.671875 L 7.171875 0 Z M 3.25 0 "/></g></g><g style="fill:#000000;fill-opacity:1;"><g transform="translate(541.79551, 657.994907)"><path style="stroke:none" d="M 11.34375 0.421875 C 10.1875 0.410156 9.101562 0.25 8.09375 -0.0625 C 7.082031 -0.382812 6.1875 -0.859375 5.40625 -1.484375 C 4.625 -2.109375 4.007812 -2.882812 3.5625 -3.8125 C 3.113281 -4.75 2.890625 -5.832031 2.890625 -7.0625 L 2.890625 -22 L 6.828125 -22 L 6.828125 -7.46875 C 6.828125 -6.03125 7.269531 -4.863281 8.15625 -3.96875 C 9.039062 -3.082031 10.378906 -2.640625 12.171875 -2.640625 C 13.785156 -2.640625 15.082031 -3.0625 16.0625 -3.90625 C 17.050781 -4.75 17.546875 -6.007812 17.546875 -7.6875 L 17.546875 -22 L 21.46875 -22 L 21.46875 0 L 18.34375 0 L 17.9375 -4.21875 C 17.664062 -3.101562 17.207031 -2.207031 16.5625 -1.53125 C 15.914062 -0.851562 15.140625 -0.351562 14.234375 -0.03125 C 13.335938 0.289062 12.375 0.441406 11.34375 0.421875 Z M 14.4375 -25.875 L 14.46875 -29.671875 L 18.3125 -29.671875 L 18.296875 -25.875 Z M 6.171875 -25.875 L 6.1875 -29.671875 L 10.03125 -29.671875 L 10.015625 -25.875 Z M 6.171875 -25.875 "/></g></g><g style="fill:#000000;fill-opacity:1;"><g transform="translate(566.149177, 657.994907)"><path style="stroke:none" d="M 11.0625 0.421875 C 9.53125 0.421875 8.109375 0.1875 6.796875 -0.28125 C 5.484375 -0.757812 4.394531 -1.503906 3.53125 -2.515625 C 2.664062 -3.535156 2.117188 -4.832031 1.890625 -6.40625 L 5.46875 -6.40625 C 5.664062 -5.539062 6.019531 -4.816406 6.53125 -4.234375 C 7.050781 -3.660156 7.703125 -3.226562 8.484375 -2.9375 C 9.265625 -2.65625 10.117188 -2.515625 11.046875 -2.515625 C 12.515625 -2.515625 13.703125 -2.789062 14.609375 -3.34375 C 15.515625 -3.894531 15.96875 -4.742188 15.96875 -5.890625 C 15.96875 -6.703125 15.726562 -7.351562 15.25 -7.84375 C 14.78125 -8.332031 14.050781 -8.6875 13.0625 -8.90625 L 8.515625 -10.046875 C 6.734375 -10.460938 5.3125 -11.125 4.25 -12.03125 C 3.1875 -12.945312 2.65625 -14.21875 2.65625 -15.84375 C 2.644531 -17.132812 2.953125 -18.269531 3.578125 -19.25 C 4.203125 -20.226562 5.132812 -21 6.375 -21.5625 C 7.625 -22.132812 9.179688 -22.421875 11.046875 -22.421875 C 13.421875 -22.421875 15.34375 -21.882812 16.8125 -20.8125 C 18.28125 -19.738281 19.046875 -18.171875 19.109375 -16.109375 L 15.640625 -16.109375 C 15.492188 -17.148438 15.019531 -17.976562 14.21875 -18.59375 C 13.414062 -19.21875 12.34375 -19.53125 11 -19.53125 C 9.59375 -19.53125 8.445312 -19.25 7.5625 -18.6875 C 6.6875 -18.125 6.25 -17.253906 6.25 -16.078125 C 6.25 -15.296875 6.5625 -14.679688 7.1875 -14.234375 C 7.8125 -13.796875 8.734375 -13.425781 9.953125 -13.125 L 14.359375 -12.015625 C 15.378906 -11.742188 16.21875 -11.390625 16.875 -10.953125 C 17.539062 -10.515625 18.066406 -10.023438 18.453125 -9.484375 C 18.847656 -8.941406 19.125 -8.375 19.28125 -7.78125 C 19.445312 -7.195312 19.53125 -6.640625 19.53125 -6.109375 C 19.53125 -4.753906 19.191406 -3.59375 18.515625 -2.625 C 17.847656 -1.65625 16.882812 -0.90625 15.625 -0.375 C 14.375 0.15625 12.851562 0.421875 11.0625 0.421875 Z M 11.0625 0.421875 "/></g></g><g style="fill:#000000;fill-opacity:1;"><g transform="translate(587.142035, 657.994907)"><path style="stroke:none" d="M 14.71875 -19.125 L 9.765625 -19.125 L 9.765625 -5.453125 C 9.765625 -4.671875 9.84375 -4.097656 10 -3.734375 C 10.164062 -3.367188 10.441406 -3.132812 10.828125 -3.03125 C 11.222656 -2.9375 11.757812 -2.890625 12.4375 -2.890625 L 14.84375 -2.890625 L 14.84375 -0.25 C 14.570312 -0.15625 14.164062 -0.0703125 13.625 0 C 13.082031 0.0703125 12.40625 0.109375 11.59375 0.109375 C 10.070312 0.109375 8.894531 -0.09375 8.0625 -0.5 C 7.226562 -0.914062 6.644531 -1.523438 6.3125 -2.328125 C 5.976562 -3.140625 5.8125 -4.132812 5.8125 -5.3125 L 5.8125 -19.125 L 2.234375 -19.125 L 2.234375 -22 L 5.90625 -22 L 6.875 -28.40625 L 9.765625 -28.40625 L 9.765625 -22.015625 L 14.71875 -22.015625 Z M 14.71875 -19.125 "/></g></g><g style="fill:#000000;fill-opacity:1;"><g transform="translate(604.05132, 657.994907)"><path style="stroke:none" d="M 11.34375 0.421875 C 10.1875 0.410156 9.101562 0.25 8.09375 -0.0625 C 7.082031 -0.382812 6.1875 -0.859375 5.40625 -1.484375 C 4.625 -2.109375 4.007812 -2.882812 3.5625 -3.8125 C 3.113281 -4.75 2.890625 -5.832031 2.890625 -7.0625 L 2.890625 -22 L 6.828125 -22 L 6.828125 -7.46875 C 6.828125 -6.03125 7.269531 -4.863281 8.15625 -3.96875 C 9.039062 -3.082031 10.378906 -2.640625 12.171875 -2.640625 C 13.785156 -2.640625 15.082031 -3.0625 16.0625 -3.90625 C 17.050781 -4.75 17.546875 -6.007812 17.546875 -7.6875 L 17.546875 -22 L 21.46875 -22 L 21.46875 0 L 18.34375 0 L 17.9375 -4.21875 C 17.664062 -3.101562 17.207031 -2.207031 16.5625 -1.53125 C 15.914062 -0.851562 15.140625 -0.351562 14.234375 -0.03125 C 13.335938 0.289062 12.375 0.441406 11.34375 0.421875 Z M 11.34375 0.421875 "/></g></g><g style="fill:#000000;fill-opacity:1;"><g transform="translate(628.681522, 657.994907)"><path style="stroke:none" d="M 3.25 0 L 3.25 -22 L 7.0625 -22 L 7.0625 -18.8125 C 7.414062 -19.414062 7.90625 -19.988281 8.53125 -20.53125 C 9.164062 -21.070312 9.929688 -21.503906 10.828125 -21.828125 C 11.734375 -22.148438 12.773438 -22.3125 13.953125 -22.3125 C 15.347656 -22.3125 16.628906 -22.035156 17.796875 -21.484375 C 18.960938 -20.929688 19.894531 -20.066406 20.59375 -18.890625 C 21.300781 -17.722656 21.65625 -16.21875 21.65625 -14.375 L 21.65625 0 L 17.71875 0 L 17.71875 -14 C 17.71875 -15.71875 17.265625 -16.988281 16.359375 -17.8125 C 15.460938 -18.644531 14.300781 -19.0625 12.875 -19.0625 C 11.875 -19.0625 10.941406 -18.898438 10.078125 -18.578125 C 9.210938 -18.265625 8.507812 -17.785156 7.96875 -17.140625 C 7.4375 -16.492188 7.171875 -15.679688 7.171875 -14.703125 L 7.171875 0 Z M 3.25 0 "/></g></g><g style="fill:#000000;fill-opacity:1;"><g transform="translate(653.226581, 657.994907)"><path style="stroke:none" d="M 12.53125 7.28125 C 9.070312 7.28125 6.378906 6.78125 4.453125 5.78125 C 2.535156 4.78125 1.578125 3.347656 1.578125 1.484375 C 1.578125 0.691406 1.757812 0.0195312 2.125 -0.53125 C 2.5 -1.09375 2.941406 -1.554688 3.453125 -1.921875 C 3.960938 -2.296875 4.4375 -2.59375 4.875 -2.8125 C 5.3125 -3.039062 5.59375 -3.203125 5.71875 -3.296875 C 5.476562 -3.441406 5.175781 -3.617188 4.8125 -3.828125 C 4.457031 -4.035156 4.144531 -4.316406 3.875 -4.671875 C 3.601562 -5.035156 3.46875 -5.5 3.46875 -6.0625 C 3.46875 -6.757812 3.789062 -7.394531 4.4375 -7.96875 C 5.09375 -8.550781 6.0625 -8.988281 7.34375 -9.28125 C 6.050781 -9.925781 5.039062 -10.785156 4.3125 -11.859375 C 3.59375 -12.941406 3.234375 -14.113281 3.234375 -15.375 C 3.234375 -16.800781 3.617188 -18.035156 4.390625 -19.078125 C 5.160156 -20.128906 6.257812 -20.9375 7.6875 -21.5 C 9.125 -22.0625 10.832031 -22.34375 12.8125 -22.34375 C 14.238281 -22.34375 15.441406 -22.175781 16.421875 -21.84375 C 17.398438 -21.507812 18.304688 -21.035156 19.140625 -20.421875 C 19.367188 -20.523438 19.726562 -20.675781 20.21875 -20.875 C 20.707031 -21.082031 21.25 -21.304688 21.84375 -21.546875 C 22.4375 -21.785156 22.992188 -22.015625 23.515625 -22.234375 C 24.035156 -22.460938 24.453125 -22.628906 24.765625 -22.734375 L 24.734375 -19.109375 L 20.890625 -18.375 C 21.097656 -17.925781 21.269531 -17.429688 21.40625 -16.890625 C 21.539062 -16.347656 21.609375 -15.84375 21.609375 -15.375 C 21.609375 -14.082031 21.269531 -12.910156 20.59375 -11.859375 C 19.925781 -10.816406 18.910156 -9.984375 17.546875 -9.359375 C 16.191406 -8.734375 14.488281 -8.421875 12.4375 -8.421875 C 12.269531 -8.421875 12.054688 -8.425781 11.796875 -8.4375 C 11.535156 -8.445312 11.3125 -8.457031 11.125 -8.46875 C 9.625 -8.425781 8.585938 -8.257812 8.015625 -7.96875 C 7.453125 -7.675781 7.171875 -7.351562 7.171875 -7 C 7.171875 -6.582031 7.488281 -6.296875 8.125 -6.140625 C 8.757812 -5.984375 9.84375 -5.851562 11.375 -5.75 C 11.925781 -5.71875 12.609375 -5.679688 13.421875 -5.640625 C 14.242188 -5.597656 15.148438 -5.539062 16.140625 -5.46875 C 18.453125 -5.320312 20.234375 -4.734375 21.484375 -3.703125 C 22.734375 -2.671875 23.359375 -1.273438 23.359375 0.484375 C 23.359375 2.484375 22.460938 4.113281 20.671875 5.375 C 18.890625 6.644531 16.175781 7.28125 12.53125 7.28125 Z M 13.234375 4.75 C 15.265625 4.75 16.816406 4.441406 17.890625 3.828125 C 18.960938 3.222656 19.5 2.300781 19.5 1.0625 C 19.5 0.1875 19.171875 -0.53125 18.515625 -1.09375 C 17.859375 -1.65625 16.859375 -1.976562 15.515625 -2.0625 L 9.34375 -2.46875 C 8.789062 -2.5 8.210938 -2.359375 7.609375 -2.046875 C 7.015625 -1.742188 6.507812 -1.320312 6.09375 -0.78125 C 5.675781 -0.25 5.46875 0.359375 5.46875 1.046875 C 5.46875 2.203125 6.101562 3.109375 7.375 3.765625 C 8.644531 4.421875 10.597656 4.75 13.234375 4.75 Z M 12.546875 -10.953125 C 14.140625 -10.953125 15.421875 -11.320312 16.390625 -12.0625 C 17.359375 -12.800781 17.84375 -13.894531 17.84375 -15.34375 C 17.84375 -16.832031 17.359375 -17.960938 16.390625 -18.734375 C 15.421875 -19.515625 14.140625 -19.90625 12.546875 -19.90625 C 10.941406 -19.90625 9.644531 -19.507812 8.65625 -18.71875 C 7.675781 -17.9375 7.1875 -16.8125 7.1875 -15.34375 C 7.1875 -13.945312 7.65625 -12.863281 8.59375 -12.09375 C 9.53125 -11.332031 10.847656 -10.953125 12.546875 -10.953125 Z M 12.546875 -10.953125 "/></g></g></g></svg>