<?xml version="1.0" encoding="UTF-8" standalone="no"?>
<svg
   xmlns:dc="http://purl.org/dc/elements/1.1/"
   xmlns:cc="http://creativecommons.org/ns#"
   xmlns:rdf="http://www.w3.org/1999/02/22-rdf-syntax-ns#"
   xmlns:svg="http://www.w3.org/2000/svg"
   xmlns="http://www.w3.org/2000/svg"
   viewBox="0 0 600 600"
   height="600"
   width="600"
   xml:space="preserve"
   id="svg2"
   version="1.1"><metadata
     id="metadata8"><rdf:RDF><cc:Work
         rdf:about=""><dc:format>image/svg+xml</dc:format><dc:type
           rdf:resource="http://purl.org/dc/dcmitype/StillImage" /></cc:Work></rdf:RDF></metadata><defs
     id="defs6" /><g
     transform="matrix(1.3333333,0,0,-1.3333333,0,600)"
     id="g10"><g
       transform="scale(0.1)"
       id="g12"><path
         id="path14"
         style="fill:#ada16a;fill-opacity:1;fill-rule:nonzero;stroke:none"
         d="M 4500,0 H 0 V 4500 H 4500 V 0" /><path
         id="path16"
         style="fill:#384b14;fill-opacity:1;fill-rule:nonzero;stroke:none"
         d="m -75,1975 c 14.293,189.46 250,390 370,235 120,-155 350,-104.22 410,55.39 60,159.61 215,469.61 60,569.61 -155,100 -130,280 -30,260 100,-20 180,-395 360,-410 180,-15 410,-15 485,-125 75,-110 85,-165 -90,-270 -85.28,-51.17 -269.88,150.95 -390,110 -126.371,-43.07 -185.637,-330.16 -160,-425 50,-185 -215,-75 -105,-315 110,-240 -180,-355 -255,-155 -75,200 45,440 -180,405 -225,-35 -120,-95 -365,-135 -245,-40 -112.5117,166.72 -110,200" /><path
         id="path18"
         style="fill:#384b14;fill-opacity:1;fill-rule:nonzero;stroke:none"
         d="m 2220,2170 c -14.6,-240.86 290,-100 170,-395 -120,-295 -170,-470 -395,-340 -225,130 -305,365 -420,505 -115,140 -350,115 -440,-40 -90,-155 -190,-205 -70,-240 120,-35 190,-125 255,55 65,180 200,165.2 200,27.6 0,-137.6 185,-267.6 75,-447.6 -110,-180 -195,-320 70,-320 265,0 515,0 480,155 -35,155 270,335 375,195 105,-140 315,65 315,-155 0,-220 125,-40 140,120 15,160 115,510.2 265,452.6 150,-57.6 -70,402.4 -215,222.4 -145,-180 -175,-485 -305,-392.5 -130,92.5 10,162.5 -95,327.5 -105,165 -210,130 -220,270 -10,140 -175,165 -185,0" /><path
         id="path20"
         style="fill:#384b14;fill-opacity:1;fill-rule:nonzero;stroke:none"
         d="m 1950,3350 c 23.37,-157.73 240,50 500,-45 260,-95 330,-80 205,-235 -125,-155 -510,-190 -405,-355 105,-165 30,-215 235,-215 205,0 315,19.13 310,-200.43 -5,-219.57 -164.67,-265.44 0.17,-305 C 2960,1955 2890,2095 3055,2230 c 165,135 155,370 320,330 165,-40 -140,225 -365,180 -225,-45 -420,-90 -390,60 30,150 430,45 505,250 75,205 155,195 -15,360 -170,165 -250,335 -175,405 75,70 -265,140 -215,-200 50,-340 -155,-280 -230,-145 -75,135 -160,400 -335,280 -175,-120 -225,-265 -205,-400" /><path
         id="path22"
         style="fill:#384b14;fill-opacity:1;fill-rule:nonzero;stroke:none"
         d="M -163.004,1045 C -42.5039,907.141 10,1095 10,1345 c 0,250 265,360 380,235 115,-125 -65,-165 40,-450 105,-285 135,-405 330,-245 195,160 290,255 365,90 C 1200,810 970,915 945,760 920,605 490,510 675,380 860,250 900,190 640,265 380,340 340,375 420,550 500,725 560,925 415,880 270,835 80,910 95,690 110,470 145,355 -25,390 c -170,35 -380,150 -225,285 155,135 96.687,305 -54.156,325 -150.844,20 23.148,180 141.152,45" /><path
         id="path24"
         style="fill:#384b14;fill-opacity:1;fill-rule:nonzero;stroke:none"
         d="m 40,3646.66 c 72.363,-268.83 113.328,-520 -113.3359,-640 C -300,2886.66 -500,2786.66 -240,2586.66 20,2386.66 233.328,2353.34 306.664,2620 380,2886.66 566.672,3373.34 773.336,3273.34 980,3173.34 606.672,3806.66 473.336,3480 340,3153.34 367.328,2813.34 176.996,2813.34 c -190.3319,0 1.34,180 58.84,460 57.5,280 -62.5,466.66 184.164,473.32 246.664,6.68 -233.336,320.01 -353.3359,166.68 C -53.3359,3760 6.70313,3770.37 40,3646.66" /><path
         id="path26"
         style="fill:#384b14;fill-opacity:1;fill-rule:nonzero;stroke:none"
         d="m 2530,806.66 c 72.36,-268.828 113.33,-520 -113.34,-640 C 2190,46.6602 1990,-53.3398 2250,-253.34 c 260,-200 526.67,26.68 600,293.34 73.34,266.66 446.67,-336.66 653.34,-436.66 206.66,-100 153.33,229.992 -213.34,566.66 -259.89,238.633 30.33,490 -160,490 -190.33,0 -461.66,-506.66 -404.16,-226.66 57.5,280 -2.91,133.242 37.49,376.66 66.66,401.6 -426.66,359.88 -546.66,206.54 -120,-153.337 280.03,-86.169 313.33,-209.88" /><path
         id="path28"
         style="fill:#384b14;fill-opacity:1;fill-rule:nonzero;stroke:none"
         d="m 1230,3656.66 c -163.78,16.95 -293.336,-220 -73.34,-380 220,-160 303.34,-119.99 413.34,-353.32 110,-233.34 280,-366.68 420,-93.34 140,273.34 -293.33,220 -213.33,520 80,300 282.41,353.33 -45.46,486.66 -327.87,133.34 -654.54,325.7 -627.87,116.19 C 1130,3743.34 1510,3950 1490,3823.34 c -20,-126.68 -66.66,-186.68 -260,-166.68" /><path
         id="path30"
         style="fill:#384b14;fill-opacity:1;fill-rule:nonzero;stroke:none"
         d="m 1029.81,-116.668 c -167.037,101.9336 143.53,293.328 -36.474,400 -180,106.668 -213.34,166.656 -66.672,240 146.676,73.34 360.006,66.68 386.676,293.34 26.66,226.658 240,206.668 286.66,0 46.66,-206.672 285.06,-400.012 365.86,-213.34 80.8,186.668 240.81,53.34 247.48,166.668 6.66,113.332 320,-153.328 193.33,-193.328 -126.67,-40 -397.19,46.66 -368.6,-86.672 28.59,-133.328 88.6,-300.012 195.27,-206.668 C 2340,376.672 2267.89,90.0117 2147.28,76.6719 2026.66,63.332 1746.67,81.0625 1733.34,222.195 1720,363.332 1593.34,630.012 1520,556.672 c -73.34,-73.34 -280,-40 -193.34,-180 86.68,-140 318.06,-373.33997 222.37,-453.34 -95.69,-80 -249.03,-240 -269.03,-80 -20,160.00003 -173.71,-6.672 -250.19,40" /><path
         id="path32"
         style="fill:#384b14;fill-opacity:1;fill-rule:nonzero;stroke:none"
         d="m 4425,1975 c 14.3,189.46 250,390 370,235 120,-155 350,-104.22 410,55.39 60,159.61 215,469.61 60,569.61 -155,100 -130,280 -30,260 100,-20 180,-395 360,-410 180,-15 410,-15 485,-125 75,-110 85,-165 -90,-270 -85.27,-51.17 -269.88,150.95 -390,110 -126.37,-43.07 -185.63,-330.16 -160,-425 50,-185 -215,-75 -105,-315 110,-240 -180,-355 -255,-155 -75,200 45,440 -180,405 -225,-35 -120,-95 -365,-135 -245,-40 -112.51,166.72 -110,200" /><path
         id="path34"
         style="fill:#384b14;fill-opacity:1;fill-rule:nonzero;stroke:none"
         d="m 4336.99,1045 c 120.51,-137.859 173.01,50 173.01,300 0,250 265,360 380,235 115,-125 -65,-165 40,-450 105,-285 135,-405 330,-245 195,160 290,255 365,90 75,-165 -155,-60 -180,-215 -25,-155 -455,-250 -270,-380 185,-130 225,-190 -35,-115 -260,75 -300,110 -220,285 80,175 140,375 -5,330 -145,-45 -335,30 -320,-190 15,-220 50,-335 -120,-300 -170,35 -380,150 -225,285 155,135 96.69,305 -54.16,325 -150.84,20 23.16,180 141.15,45" /><path
         id="path36"
         style="fill:#384b14;fill-opacity:1;fill-rule:nonzero;stroke:none"
         d="m 4540,3646.66 c 72.36,-268.83 113.33,-520 -113.34,-640 -226.66,-120 -426.66,-220 -166.66,-420 260,-200 473.33,-233.32 546.66,33.34 73.34,266.66 260.01,753.34 466.68,653.34 206.66,-100 -166.67,533.32 -300,206.66 -133.34,-326.66 -106.02,-666.66 -296.35,-666.66 -190.33,0 1.35,180 58.85,460 57.5,280 -62.5,466.66 184.16,473.32 246.66,6.68 -233.34,320.01 -353.34,166.68 -120,-153.34 -59.96,-142.97 -26.66,-266.68" /><path
         id="path38"
         style="fill:#384b14;fill-opacity:1;fill-rule:nonzero;stroke:none"
         d="M 680,-130 C 921.148,3.97656 640,160 480,170 320,180 220,364.395 150,232.195 80,100 63.9922,99.7461 -113.004,74.875 -290,50 261.672,-229.668 235.836,-414.832 210,-600 398.789,-370 524.395,-650 650,-930 1058.06,-900 1069.03,-770 1080,-640 949.934,-710 829.965,-600 710,-490 770,-189.043 660,-229.52 550,-270 590,-180 680,-130" /><path
         id="path40"
         style="fill:#384b14;fill-opacity:1;fill-rule:nonzero;stroke:none"
         d="m 3190,975 c 54.11,191.56 190.45,335 100.23,485 -90.23,150 379.77,80 389.77,220 10,140 60,-140 230,-180 170,-40 564,-56.11 477,-153.06 C 4300,1250 4090,1410 3880,1290 3670,1170 3750,990 3900,890 4050,790 3930,640 3870,440 3810,240 3874.55,60 4137.27,60 4400,60 4630,20 4580,-90 4530,-200 4104.55,-340 4137.27,-510 4170,-680 3866.88,-510 3888.44,-290 3910,-70 3676.76,-30 3623.38,150 3570,330 3690,360 3690,640 c 0,280 -26,170 -268,170 -242,0 -253.82,87.734 -232,165" /><path
         id="path42"
         style="fill:#384b14;fill-opacity:1;fill-rule:nonzero;stroke:none"
         d="m 2530,5306.66 c 72.36,-268.83 113.33,-520 -113.34,-640 -226.66,-120 -426.66,-220 -166.66,-420 260,-200 526.67,26.68 600,293.34 73.34,266.66 446.67,-336.66 653.34,-436.66 206.66,-100 153.33,229.99 -213.34,566.66 -259.89,238.63 30.33,490 -160,490 -190.33,0 -461.66,-506.66 -404.16,-226.66 57.5,280 -2.91,133.24 37.49,376.66 66.66,401.6 -426.66,359.88 -546.66,206.54 -120,-153.34 280.03,-86.17 313.33,-209.88" /><path
         id="path44"
         style="fill:#384b14;fill-opacity:1;fill-rule:nonzero;stroke:none"
         d="m 1029.81,4383.33 c -167.037,101.94 143.53,293.33 -36.474,400 -180,106.67 -213.34,166.66 -66.672,240 146.676,73.34 360.006,66.68 386.676,293.34 26.66,226.66 240,206.67 286.66,0 46.66,-206.67 285.06,-400.01 365.86,-213.34 80.8,186.67 240.81,53.34 247.48,166.67 6.66,113.33 320,-153.33 193.33,-193.33 -126.67,-40 -397.19,46.66 -368.6,-86.67 28.59,-133.33 88.6,-300.01 195.27,-206.67 106.66,93.34 34.55,-193.32 -86.06,-206.66 -120.62,-13.34 -400.61,4.4 -413.94,145.53 -13.34,141.13 -140,407.81 -213.34,334.47 -73.34,-73.34 -280,-40 -193.34,-180 86.68,-140 318.06,-373.34 222.37,-453.34 -95.69,-80 -249.03,-240 -269.03,-80 -20,160 -173.71,-6.67 -250.19,40" /><path
         id="path46"
         style="fill:#384b14;fill-opacity:1;fill-rule:nonzero;stroke:none"
         d="m 680,4370 c 241.148,133.98 -40,290 -200,300 -160,10 -260,194.39 -330,62.2 C 80,4600 63.9922,4599.75 -113.004,4574.88 -290,4550 261.672,4270.33 235.836,4085.17 210,3900 398.789,4130 524.395,3850 650,3570 1058.06,3600 1069.03,3730 1080,3860 949.934,3790 829.965,3900 710,4010 770,4310.96 660,4270.48 550,4230 590,4320 680,4370" /><path
         id="path48"
         style="fill:#384b14;fill-opacity:1;fill-rule:nonzero;stroke:none"
         d="m 3190,5475 c 54.11,191.56 190.45,335 100.23,485 -90.23,150 379.77,80 389.77,220 10,140 60,-140 230,-180 170,-40 564,-56.11 477,-153.05 -87,-96.95 -297,63.05 -507,-56.95 -210,-120 -130,-300 20,-400 150,-100 30,-250 -30,-450 -60,-200 4.55,-380 267.27,-380 262.73,0 492.73,-40 442.73,-150 -50,-110 -475.45,-250 -442.73,-420 32.73,-170 -270.39,0 -248.83,220 21.56,220 -211.68,260 -265.06,440 -53.38,180 66.62,210 66.62,490 0,280 -26,170 -268,170 -242,0 -253.82,87.73 -232,165" /><path
         id="path50"
         style="fill:#384b14;fill-opacity:1;fill-rule:nonzero;stroke:none"
         d="M 3182.51,3920.79 C 3334.59,3754.07 3394,3740 3422,3580 c 28,-160 -47.49,-450 -119.74,-540 -72.26,-90 98.8,-202.89 321.12,-362.45 261.32,-187.55 6.01,212.45 261.32,302.45 255.3,90 365.3,86.01 335.3,283 -30,197 -230.61,447 -335.3,317 -104.7,-130 -77.38,-460 -181.04,-270 -103.66,190 33.66,395.69 0,562.85 C 3670,4040 3474,3821.07 3422,3955.54 c -52,134.46 -305.78,37.92 -239.49,-34.75" /><path
         id="path52"
         style="fill:#384b14;fill-opacity:1;fill-rule:nonzero;stroke:none"
         d="M 3330.23,2230 C 3365.54,2386.05 3740,2179.13 3840,2314.57 3940,2450 4169.63,2450 4264.81,2360 4360,2270 4110,2140 4130,1940 c 20,-200 -340,50 -520,-120 -180,-170 -329.55,190 -279.77,410" /><path
         id="path54"
         style="fill:#5d3a11;fill-opacity:1;fill-rule:nonzero;stroke:none"
         d="M -104.164,2760 C 71.9922,2830.38 549.355,2450 729.68,2640 910,2830 1100,2801.82 1130,2695.91 1160,2590 815.84,2555.1 512.922,2427.55 210,2300 -200,2560 -340,2500 c -140,-60 -350,40.61 -310,180.3 40,139.7 269.988,-30.5 545.836,79.7" /><path
         id="path56"
         style="fill:#5d3a11;fill-opacity:1;fill-rule:nonzero;stroke:none"
         d="M 509.789,939.609 C 157.594,863.563 158.137,1033.14 -30.4023,994.836 -218.938,956.523 -479.824,1029.31 -314.949,1246.56 c 164.875,217.27 546.996,-18.71 807.062,109.59 260.075,128.31 529.177,21.72 630.247,151.15 101.06,129.45 495.78,-159.3 553.36,-350.84 57.58,-191.526 -277.99,-148.15 -474.18,-15.07 C 1005.37,1274.46 689.973,978.508 509.789,939.609" /><path
         id="path58"
         style="fill:#5d3a11;fill-opacity:1;fill-rule:nonzero;stroke:none"
         d="m 1300,232.195 c -80.69,225.676 581.73,179.407 645.86,538.606 C 2010,1130 2306.75,739.23 2640,660 2973.25,580.77 3178.8,616.863 3120,450 3060,279.734 2910,489.473 2740,279.734 2570,70 2298.95,194.121 2224.48,377.063 2150,560 1846.67,364.395 1733.34,222.195 1620,80 1360,64.3945 1300,232.195" /><path
         id="path60"
         style="fill:#5d3a11;fill-opacity:1;fill-rule:nonzero;stroke:none"
         d="m 1238.02,2137.79 c 80.12,195.15 234.08,-66.4 436.23,31.76 202.14,98.17 689.79,-219.07 794.99,90.63 105.16,309.7 599.1,3.46 625.34,-99.24 26.25,-102.69 -326.01,76.66 -462.43,-63.63 -136.42,-140.28 -485.51,-141.53 -553.45,-284.87 -67.94,-143.34 -280.89,126.32 -428.93,47.93 -148.05,-78.41 -705.7,-6.16 -700.629,126.34 5.062,132.48 205.939,-50.96 288.879,151.08" /><path
         id="path62"
         style="fill:#5d3a11;fill-opacity:1;fill-rule:nonzero;stroke:none"
         d="m 723.539,3492.97 c 26.844,161.23 185.816,7.03 346.141,-52.97 160.32,-60 84.03,-170.02 219.64,-248.07 135.62,-78.05 409.75,-35.19 487.35,158.07 77.6,193.26 113.33,-219.83 293.33,-194.92 180,24.92 260,-144.47 180,-224.78 -80,-80.3 -681.79,47.57 -790,-110.3 -108.21,-157.87 -350.38,-109.39 -450.19,110.3 C 910,3150 680.719,3157.79 590,3325.47 c -129.203,238.81 106.684,6.19 133.539,167.5" /><path
         id="path64"
         style="fill:#5d3a11;fill-opacity:1;fill-rule:nonzero;stroke:none"
         d="M 3095.97,850 C 2880,970 2969.82,1060 3249.91,1130 3530,1200 3607.05,810 3803.52,850 4000,890 4153.03,580 4286.52,660 4420,740 4530,124.395 4330,232.195 4130,340 4170,639.668 4060,569.836 3950,500 3570,661.23 3490,515.613 3410,370 3320.45,680 3290.23,780 3260,880 3095.97,850 3095.97,850" /><path
         id="path66"
         style="fill:#5d3a11;fill-opacity:1;fill-rule:nonzero;stroke:none"
         d="m 1788.47,4285.18 c 155.19,-78.11 388.12,156.16 537.72,-21.26 149.6,-177.43 367.87,-19.4 391.34,121.61 23.47,141.01 205.35,-228.17 24.06,-342.8 -181.3,-114.64 -272.92,78.72 -440.03,73.23 -167.1,-5.49 -439.93,-224.96 -582.17,-144.88 -142.23,80.07 -118.97,158.9 -212.85,325.79 -93.87,166.88 235.18,11.84 281.93,-11.69" /><path
         id="path68"
         style="fill:#5d3a11;fill-opacity:1;fill-rule:nonzero;stroke:none"
         d="m -213.004,4287.05 c 0,95.75 289.1329,91.14 573.801,0 284.668,-91.14 429.058,17.19 579.191,34.52 308.302,35.58 -4.886,-418.14 -280.883,-368.72 C 383.109,4002.27 90,4091.07 -170,4035.54 c -260,-55.54 -43.004,129.63 -43.004,251.51" /><path
         id="path70"
         style="fill:#5d3a11;fill-opacity:1;fill-rule:nonzero;stroke:none"
         d="m 4585.84,2760 c 176.15,70.38 653.52,-310 833.84,-120 C 5600,2830 5790,2801.82 5820,2695.91 5850,2590 5505.84,2555.1 5202.92,2427.55 4900,2300 4490,2560 4350,2500 c -140,-60 -350,40.61 -310,180.3 40,139.7 269.99,-30.5 545.84,79.7" /><path
         id="path72"
         style="fill:#5d3a11;fill-opacity:1;fill-rule:nonzero;stroke:none"
         d="m 5199.79,939.609 c -352.19,-76.046 -351.65,93.531 -540.19,55.227 -188.54,-38.313 -449.42,34.474 -284.55,251.724 164.87,217.27 547,-18.71 807.06,109.59 260.08,128.31 529.18,21.72 630.25,151.15 101.06,129.45 495.78,-159.3 553.36,-350.84 57.58,-191.526 -277.99,-148.15 -474.18,-15.07 -196.17,133.07 -511.57,-162.882 -691.75,-201.781" /><path
         id="path74"
         style="fill:#5d3a11;fill-opacity:1;fill-rule:nonzero;stroke:none"
         d="m 4476.99,4287.05 c 0,95.75 289.14,91.14 573.81,0 284.67,-91.14 429.06,17.19 579.19,34.52 308.29,35.58 -4.89,-418.14 -280.89,-368.72 -275.99,49.42 -569.1,138.22 -829.1,82.69 -260,-55.54 -43.01,129.63 -43.01,251.51" /><path
         id="path76"
         style="fill:#5d3a11;fill-opacity:1;fill-rule:nonzero;stroke:none"
         d="m 3195.9,3110 c 121.66,-58.24 174.69,160.06 195.64,390 20.96,229.94 631.98,130 863.48,50 148.02,-51.15 67.32,-398.09 -150.32,-300 -217.65,98.09 -664.7,204.36 -401.36,-238.07 121.01,-203.29 -90.25,-311.32 -311.8,-261.63 -221.54,49.7 -435.75,149.43 -656.08,122.89 -180.53,-21.74 150.44,385.22 460.44,236.81" /><path
         id="path78"
         style="fill:#2c1f0d;fill-opacity:1;fill-rule:nonzero;stroke:none"
         d="m 1150,3770 c -54.49,-163.48 274.95,-80.84 239.79,-235.72 -54.22,-238.81 414.57,64.64 322.09,235.72 -92.49,171.08 -319.29,464.1 -395.59,407.05 C 1240,4120 1064.98,4151.25 967.488,4015.63 870,3880 1180,3860 1150,3770" /><path
         id="path80"
         style="fill:#2c1f0d;fill-opacity:1;fill-rule:nonzero;stroke:none"
         d="M 115.836,1670 C -39.9297,1690.55 -240,1930 -310,1810 c -70,-120 -190,389.13 0,429.57 190,40.43 598.672,-107.99 650.797,35 52.125,142.98 130.797,-204.57 0,-244.57 C 210,1990 130,1821.62 220,1765.81 310,1710 191.656,1660 115.836,1670" /><path
         id="path82"
         style="fill:#2c1f0d;fill-opacity:1;fill-rule:nonzero;stroke:none"
         d="m 3237.29,1500 c -149.39,68.64 97.3,98.85 116.09,269.25 18.79,170.4 184.2,271.96 411.64,209.64 227.44,-62.34 204.29,-74.28 287.73,-230.2 83.43,-155.92 106.88,-339.3 -97.94,-308.99 C 3750,1470 3739.39,1674.18 3614.7,1547.09 3490,1420 3366.26,1440.73 3237.29,1500" /><path
         id="path84"
         style="fill:#2c1f0d;fill-opacity:1;fill-rule:nonzero;stroke:none"
         d="M 3940,4357.15 C 3812.62,4233.4 4055.45,3935.68 3707.73,4022.84 3360,4110 2911.8,4101.57 2975.9,3920.79 3040,3740 3440.28,3912.06 3570,3815.21 3699.72,3718.35 4157.46,3600 4213.73,3740 c 56.27,140 19.97,270 72.79,380 52.8,110 -246.52,334.3 -346.52,237.15" /><path
         id="path86"
         style="fill:#2c1f0d;fill-opacity:1;fill-rule:nonzero;stroke:none"
         d="m 2018.07,1229.68 c 65.29,95.22 184.45,43.61 321.93,306.71 190,363.61 270,-241.19 440,-133.79 170,107.4 208.33,-155.24 130,-172.92 -78.33,-17.69 -200,190.32 -300,70.32 -100,-120 -441.09,49.94 -465,-170 -23.91,-219.941 -245,-200 -325,-155 -80,45 136.14,164.36 198.07,254.68" /><path
         id="path88"
         style="fill:#2c1f0d;fill-opacity:1;fill-rule:nonzero;stroke:none"
         d="m 671.566,515.613 c -96.589,219.856 -236.113,199.641 -210.769,0 C 486.137,315.977 372.758,176.953 238.43,377.063 104.098,577.168 100,349.473 50,279.734 0,210 -285.73,398.965 -297.867,219.48 -310,40 90.1914,63.9258 201.063,150 c 110.875,86.074 468.66,86.047 558.042,86.047 190,0 -47.539,188.523 -87.539,279.566" /><path
         id="path90"
         style="fill:#2c1f0d;fill-opacity:1;fill-rule:nonzero;stroke:none"
         d="m 2420,2830 c 34.46,121.68 470.66,170 395.33,400 -75.33,230 76.8,162.71 244.67,90 167.87,-72.71 -75,-310 182.26,-280 148.08,17.27 205.03,151.93 277.74,105.82 63.21,-40.1 255.06,-197.81 0.51,-215.52 -254.55,-17.7 -486.29,30.31 -603.4,0 C 2800,2900 2500.14,2793.91 2680.07,2696.95 2860,2600 2580,2481.02 2460,2585.51 2340,2690 2380.35,2690.02 2420,2830" /><path
         id="path92"
         style="fill:#2c1f0d;fill-opacity:1;fill-rule:nonzero;stroke:none"
         d="m 1582.79,2693.03 c -0.98,-134.9 332.23,-266.9 162.21,-301.17 -170.02,-34.27 8.93,-180.67 167.09,-133.93 158.15,46.74 137.9,110.18 289.2,61.25 151.29,-48.95 21.82,383.14 -74.01,358.37 -109.1,-28.21 0.51,-70.24 -125.73,-113.16 -48.88,-16.62 -127.13,-25.37 -199.09,21.12 -113.86,73.58 -218.91,210.91 -219.67,107.52" /><path
         id="path94"
         style="fill:#2c1f0d;fill-opacity:1;fill-rule:nonzero;stroke:none"
         d="M 2969.73,219.48 C 2928.07,-78.0469 2815.23,25.6836 2610,110.938 2404.77,196.191 2438.32,600.508 2211.6,620 c -226.71,19.492 -178.73,60.93 -193.53,170 -14.8,109.07 246.16,-147.832 301.93,-111.043 55.77,36.785 334.98,-308.41 440,-259.531 105.02,48.875 402.5,150.41 360,30.574 -43.81,-123.535 -140.55,-161.035 -150.27,-230.52" /><path
         id="path96"
         style="fill:#2c1f0d;fill-opacity:1;fill-rule:nonzero;stroke:none"
         d="m 266.863,1229.68 c 50.649,37.18 328.203,-49.8 390.649,70.46 62.437,120.25 429.158,231.72 509.158,102.46 80,-129.27 -173.334,-89.9 -253.334,-172.92 -80,-83.02 -273.668,-157.57 -386.664,-103.57 -113,53.99 -153.336,-56.11 -220.008,-70.66 -71.113,-15.52 -169.406,79.06 -39.801,174.23" /><path
         id="path98"
         style="fill:#2c1f0d;fill-opacity:1;fill-rule:nonzero;stroke:none"
         d="m -148.082,2890 c -60.645,192.8 128.0429,23.23 208.0429,176.7 80.0001,153.46 82.8751,29.84 178.4691,-98.44 129.129,-173.3 274.734,-101.74 313.152,0 C 590,3070 745.02,2716.71 657.512,2677.55 570,2638.38 252.551,2658.33 201.273,2779.16 150,2900 90,2940 40,2890 c -50,-50 -167.48,-65.49 -188.082,0" /><path
         id="path100"
         style="fill:#2c1f0d;fill-opacity:1;fill-rule:nonzero;stroke:none"
         d="m 2330,4417.18 c -183.06,46.22 -705.63,-214.33 -403.29,-264.06 302.35,-49.74 356.88,-32.71 510.09,-337.91 153.2,-305.21 325.54,30.47 384.37,207.63 C 2880,4200 2610,4224.1 2510,4207.05 2410,4190 2460,4384.36 2330,4417.18" /><path
         id="path102"
         style="fill:#2c1f0d;fill-opacity:1;fill-rule:nonzero;stroke:none"
         d="m 4615.98,1670 c -155.77,20.55 -355.84,260 -425.84,140 -70,-120 -190,389.13 0,429.57 190,40.43 598.68,-107.99 650.8,35 52.13,142.98 130.8,-204.57 0,-244.57 -130.8,-40 -210.8,-208.38 -120.8,-264.19 90,-55.81 -28.34,-105.81 -104.16,-95.81" /><path
         id="path104"
         style="fill:#2c1f0d;fill-opacity:1;fill-rule:nonzero;stroke:none"
         d="m 5171.72,515.613 c -96.6,219.856 -236.11,199.641 -210.78,0 25.35,-199.636 -88.03,-338.66 -222.37,-138.55 -134.33,200.105 -138.43,-27.59 -188.43,-97.329 C 4500.14,210 4214.41,398.965 4202.29,219.48 4190.14,40 4590.33,63.9258 4701.21,150 c 110.88,86.074 468.65,86.047 558.05,86.047 190,0 -47.54,188.523 -87.54,279.566" /><path
         id="path106"
         style="fill:#2c1f0d;fill-opacity:1;fill-rule:nonzero;stroke:none"
         d="m 4352.07,2890 c -60.64,192.8 128.04,23.23 208.04,176.7 80,153.46 82.88,29.84 178.46,-98.44 129.14,-173.3 274.74,-101.74 313.16,0 38.41,101.74 193.44,-251.55 105.93,-290.71 -87.52,-39.17 -404.96,-19.22 -456.23,101.61 C 4650.14,2900 4590.14,2940 4540.14,2890 c -50,-50 -167.47,-65.49 -188.07,0" /></g></g></svg>